<?xml version="1.0" encoding="UTF-8"?>
<svg xmlns="http://www.w3.org/2000/svg" xmlns:xlink="http://www.w3.org/1999/xlink" width="541pt" height="103pt" viewBox="0 0 541 103" version="1.1">
<g id="surface1">
<path style="fill-rule:nonzero;fill:rgb(40%,74.901961%,100%);fill-opacity:1;stroke-width:1;stroke-linecap:round;stroke-linejoin:round;stroke:rgb(0%,0%,0%);stroke-opacity:1;stroke-miterlimit:10;" d="M 754.89375 237.88125 L 772.89375 237.88125 L 772.89375 255.88125 L 754.89375 255.88125 Z M 754.89375 237.88125 " transform="matrix(1.25,0,0,1.25,-920,-228.75)"/>
<path style=" stroke:none;fill-rule:nonzero;fill:rgb(0%,0%,0%);fill-opacity:1;" d="M 32.210938 80.851562 L 33.207031 80.714844 C 33.324219 81.273438 33.507812 81.679688 33.773438 81.925781 C 34.046875 82.171875 34.382812 82.296875 34.789062 82.296875 C 35.242188 82.296875 35.628906 82.140625 35.941406 81.828125 C 36.261719 81.503906 36.429688 81.097656 36.429688 80.617188 C 36.429688 80.160156 36.277344 79.789062 35.980469 79.503906 C 35.691406 79.203125 35.320312 79.054688 34.867188 79.054688 C 34.671875 79.054688 34.4375 79.09375 34.164062 79.171875 L 34.28125 78.292969 C 34.34375 78.304688 34.398438 78.3125 34.4375 78.3125 C 34.851562 78.3125 35.226562 78.203125 35.570312 77.980469 C 35.90625 77.757812 36.078125 77.421875 36.078125 76.964844 C 36.078125 76.601562 35.949219 76.300781 35.707031 76.066406 C 35.457031 75.832031 35.140625 75.714844 34.75 75.714844 C 34.367188 75.714844 34.050781 75.839844 33.792969 76.085938 C 33.542969 76.320312 33.382812 76.679688 33.304688 77.160156 L 32.308594 76.984375 C 32.433594 76.320312 32.707031 75.804688 33.128906 75.441406 C 33.558594 75.078125 34.089844 74.894531 34.730469 74.894531 C 35.167969 74.894531 35.574219 74.992188 35.941406 75.1875 C 36.316406 75.371094 36.605469 75.625 36.800781 75.949219 C 36.996094 76.273438 37.09375 76.621094 37.09375 76.984375 C 37.09375 77.335938 36.996094 77.65625 36.800781 77.941406 C 36.613281 78.226562 36.339844 78.457031 35.980469 78.625 C 36.457031 78.730469 36.828125 78.957031 37.09375 79.308594 C 37.351562 79.648438 37.484375 80.078125 37.484375 80.597656 C 37.484375 81.300781 37.21875 81.898438 36.703125 82.394531 C 36.195312 82.875 35.550781 83.117188 34.769531 83.117188 C 34.066406 83.117188 33.480469 82.910156 33.011719 82.492188 C 32.542969 82.074219 32.273438 81.527344 32.210938 80.851562 Z M 32.210938 80.851562 "/>
<path style="fill-rule:nonzero;fill:rgb(100%,100%,100%);fill-opacity:1;stroke-width:1;stroke-linecap:round;stroke-linejoin:round;stroke:rgb(0%,0%,0%);stroke-opacity:1;stroke-miterlimit:10;" d="M 736.89375 237.88125 L 754.89375 237.88125 L 754.89375 255.88125 L 736.89375 255.88125 Z M 736.89375 237.88125 " transform="matrix(1.25,0,0,1.25,-920,-228.75)"/>
<path style=" stroke:none;fill-rule:nonzero;fill:rgb(0%,0%,0%);fill-opacity:1;" d="M 14.90625 82.023438 L 14.90625 82.980469 L 9.574219 82.980469 C 9.574219 82.746094 9.613281 82.519531 9.691406 82.296875 C 9.832031 81.933594 10.050781 81.574219 10.355469 81.222656 C 10.652344 80.871094 11.082031 80.46875 11.644531 80.011719 C 12.511719 79.28125 13.097656 78.710938 13.402344 78.292969 C 13.714844 77.875 13.871094 77.480469 13.871094 77.101562 C 13.871094 76.710938 13.722656 76.386719 13.441406 76.125 C 13.167969 75.851562 12.804688 75.714844 12.367188 75.714844 C 11.882812 75.714844 11.496094 75.859375 11.214844 76.144531 C 10.925781 76.429688 10.785156 76.828125 10.785156 77.335938 L 9.769531 77.21875 C 9.832031 76.464844 10.089844 75.890625 10.550781 75.5 C 11.003906 75.097656 11.613281 74.894531 12.386719 74.894531 C 13.152344 74.894531 13.757812 75.109375 14.203125 75.539062 C 14.65625 75.96875 14.886719 76.496094 14.886719 77.121094 C 14.886719 77.445312 14.816406 77.765625 14.691406 78.078125 C 14.558594 78.390625 14.339844 78.722656 14.027344 79.074219 C 13.722656 79.414062 13.226562 79.882812 12.523438 80.480469 C 11.921875 80.976562 11.535156 81.3125 11.371094 81.496094 C 11.199219 81.679688 11.0625 81.855469 10.960938 82.023438 Z M 14.90625 82.023438 "/>
<path style="fill-rule:nonzero;fill:rgb(100%,100%,100%);fill-opacity:1;stroke-width:1;stroke-linecap:round;stroke-linejoin:round;stroke:rgb(0%,0%,0%);stroke-opacity:1;stroke-miterlimit:10;" d="M 754.89375 219.88125 L 772.89375 219.88125 L 772.89375 237.88125 L 754.89375 237.88125 Z M 754.89375 219.88125 " transform="matrix(1.25,0,0,1.25,-920,-228.75)"/>
<path style=" stroke:none;fill-rule:nonzero;fill:rgb(0%,0%,0%);fill-opacity:1;" d="M 35.941406 60.480469 L 34.945312 60.480469 L 34.945312 54.171875 C 34.710938 54.40625 34.398438 54.640625 34.007812 54.875 C 33.617188 55.097656 33.269531 55.257812 32.972656 55.363281 L 32.972656 54.40625 C 33.519531 54.160156 33.996094 53.851562 34.417969 53.488281 C 34.832031 53.109375 35.125 52.746094 35.296875 52.394531 L 35.941406 52.394531 Z M 35.941406 60.480469 "/>
<path style="fill-rule:nonzero;fill:rgb(69.803922%,85.098039%,100%);fill-opacity:1;stroke-width:1;stroke-linecap:round;stroke-linejoin:round;stroke:rgb(0%,0%,0%);stroke-opacity:1;stroke-miterlimit:10;" d="M 736.89375 219.88125 L 754.89375 219.88125 L 754.89375 237.88125 L 736.89375 237.88125 Z M 736.89375 219.88125 " transform="matrix(1.25,0,0,1.25,-920,-228.75)"/>
<path style=" stroke:none;fill-rule:nonzero;fill:rgb(0%,0%,0%);fill-opacity:1;" d="M 9.710938 56.515625 C 9.710938 55.566406 9.808594 54.796875 10.003906 54.210938 C 10.199219 53.625 10.480469 53.175781 10.863281 52.863281 C 11.253906 52.550781 11.742188 52.394531 12.328125 52.394531 C 12.765625 52.394531 13.152344 52.484375 13.480469 52.667969 C 13.800781 52.835938 14.070312 53.085938 14.28125 53.410156 C 14.484375 53.734375 14.652344 54.132812 14.769531 54.601562 C 14.894531 55.070312 14.964844 55.707031 14.964844 56.515625 C 14.964844 57.453125 14.867188 58.214844 14.671875 58.800781 C 14.476562 59.375 14.183594 59.824219 13.792969 60.148438 C 13.410156 60.460938 12.921875 60.617188 12.328125 60.617188 C 11.554688 60.617188 10.949219 60.335938 10.511719 59.777344 C 9.972656 59.113281 9.710938 58.027344 9.710938 56.515625 Z M 10.726562 56.515625 C 10.726562 57.832031 10.871094 58.710938 11.175781 59.152344 C 11.488281 59.582031 11.867188 59.796875 12.328125 59.796875 C 12.78125 59.796875 13.167969 59.582031 13.480469 59.152344 C 13.792969 58.710938 13.949219 57.832031 13.949219 56.515625 C 13.949219 55.1875 13.792969 54.308594 13.480469 53.878906 C 13.167969 53.4375 12.78125 53.214844 12.328125 53.214844 C 11.867188 53.214844 11.507812 53.402344 11.234375 53.78125 C 10.890625 54.277344 10.726562 55.1875 10.726562 56.515625 Z M 10.726562 56.515625 "/>
<path style="fill-rule:nonzero;fill:rgb(100%,100%,100%);fill-opacity:1;stroke-width:1;stroke-linecap:round;stroke-linejoin:round;stroke:rgb(0%,0%,0%);stroke-opacity:1;stroke-miterlimit:10;" d="M 857.4 245.8 L 875.4 245.8 L 875.4 263.8 L 857.4 263.8 Z M 857.4 245.8 " transform="matrix(1.25,0,0,1.25,-920,-228.75)"/>
<path style="fill-rule:nonzero;fill:rgb(69.803922%,85.098039%,100%);fill-opacity:1;stroke-width:1;stroke-linecap:round;stroke-linejoin:round;stroke:rgb(0%,0%,0%);stroke-opacity:1;stroke-miterlimit:10;" d="M 857.4 209.8 L 875.4 209.8 L 875.4 227.8 L 857.4 227.8 Z M 857.4 209.8 " transform="matrix(1.25,0,0,1.25,-920,-228.75)"/>
<path style=" stroke:none;fill-rule:nonzero;fill:rgb(0%,0%,0%);fill-opacity:1;" d="M 160.339844 43.910156 C 160.339844 42.960938 160.4375 42.191406 160.632812 41.605469 C 160.828125 41.019531 161.113281 40.570312 161.492188 40.257812 C 161.882812 39.945312 162.371094 39.789062 162.957031 39.789062 C 163.398438 39.789062 163.78125 39.882812 164.109375 40.0625 C 164.433594 40.234375 164.699219 40.484375 164.910156 40.804688 C 165.117188 41.132812 165.28125 41.527344 165.398438 41.996094 C 165.527344 42.464844 165.59375 43.105469 165.59375 43.910156 C 165.59375 44.847656 165.496094 45.609375 165.300781 46.195312 C 165.105469 46.773438 164.8125 47.21875 164.421875 47.542969 C 164.042969 47.855469 163.554688 48.011719 162.957031 48.011719 C 162.1875 48.011719 161.582031 47.734375 161.140625 47.171875 C 160.605469 46.507812 160.339844 45.421875 160.339844 43.910156 Z M 161.355469 43.910156 C 161.355469 45.226562 161.503906 46.109375 161.804688 46.546875 C 162.117188 46.976562 162.5 47.191406 162.957031 47.191406 C 163.410156 47.191406 163.796875 46.976562 164.109375 46.546875 C 164.421875 46.109375 164.578125 45.226562 164.578125 43.910156 C 164.578125 42.582031 164.421875 41.703125 164.109375 41.273438 C 163.796875 40.835938 163.410156 40.609375 162.957031 40.609375 C 162.5 40.609375 162.136719 40.800781 161.863281 41.175781 C 161.523438 41.671875 161.355469 42.582031 161.355469 43.910156 Z M 161.355469 43.910156 "/>
<path style="fill-rule:nonzero;fill:rgb(69.803922%,85.098039%,100%);fill-opacity:1;stroke-width:1;stroke-linecap:round;stroke-linejoin:round;stroke:rgb(0%,0%,0%);stroke-opacity:1;stroke-miterlimit:10;" d="M 857.4 227.8 L 875.4 227.8 L 875.4 245.8 L 857.4 245.8 Z M 857.4 227.8 " transform="matrix(1.25,0,0,1.25,-920,-228.75)"/>
<path style=" stroke:none;fill-rule:nonzero;fill:rgb(0%,0%,0%);fill-opacity:1;" d="M 160.339844 66.410156 C 160.339844 65.460938 160.4375 64.691406 160.632812 64.105469 C 160.828125 63.519531 161.113281 63.070312 161.492188 62.757812 C 161.882812 62.445312 162.371094 62.289062 162.957031 62.289062 C 163.398438 62.289062 163.78125 62.382812 164.109375 62.5625 C 164.433594 62.734375 164.699219 62.984375 164.910156 63.304688 C 165.117188 63.632812 165.28125 64.027344 165.398438 64.496094 C 165.527344 64.964844 165.59375 65.605469 165.59375 66.410156 C 165.59375 67.347656 165.496094 68.109375 165.300781 68.695312 C 165.105469 69.273438 164.8125 69.71875 164.421875 70.042969 C 164.042969 70.355469 163.554688 70.511719 162.957031 70.511719 C 162.1875 70.511719 161.582031 70.234375 161.140625 69.671875 C 160.605469 69.007812 160.339844 67.921875 160.339844 66.410156 Z M 161.355469 66.410156 C 161.355469 67.726562 161.503906 68.609375 161.804688 69.046875 C 162.117188 69.476562 162.5 69.691406 162.957031 69.691406 C 163.410156 69.691406 163.796875 69.476562 164.109375 69.046875 C 164.421875 68.609375 164.578125 67.726562 164.578125 66.410156 C 164.578125 65.082031 164.421875 64.203125 164.109375 63.773438 C 163.796875 63.335938 163.410156 63.109375 162.957031 63.109375 C 162.5 63.109375 162.136719 63.300781 161.863281 63.675781 C 161.523438 64.171875 161.355469 65.082031 161.355469 66.410156 Z M 161.355469 66.410156 "/>
<path style="fill-rule:nonzero;fill:rgb(100%,100%,100%);fill-opacity:1;stroke-width:1;stroke-linecap:round;stroke-linejoin:round;stroke:rgb(0%,0%,0%);stroke-opacity:1;stroke-miterlimit:10;" d="M 839.4 245.8 L 857.4 245.8 L 857.4 263.8 L 839.4 263.8 Z M 839.4 245.8 " transform="matrix(1.25,0,0,1.25,-920,-228.75)"/>
<path style="fill-rule:nonzero;fill:rgb(100%,100%,100%);fill-opacity:1;stroke-width:1;stroke-linecap:round;stroke-linejoin:round;stroke:rgb(0%,0%,0%);stroke-opacity:1;stroke-miterlimit:10;" d="M 875.4 227.8 L 893.4 227.8 L 893.4 245.8 L 875.4 245.8 Z M 875.4 227.8 " transform="matrix(1.25,0,0,1.25,-920,-228.75)"/>
<path style="fill-rule:nonzero;fill:rgb(69.803922%,85.098039%,100%);fill-opacity:1;stroke-width:1;stroke-linecap:round;stroke-linejoin:round;stroke:rgb(0%,0%,0%);stroke-opacity:1;stroke-miterlimit:10;" d="M 839.4 227.8 L 857.4 227.8 L 857.4 245.8 L 839.4 245.8 Z M 839.4 227.8 " transform="matrix(1.25,0,0,1.25,-920,-228.75)"/>
<path style=" stroke:none;fill-rule:nonzero;fill:rgb(0%,0%,0%);fill-opacity:1;" d="M 137.839844 66.410156 C 137.839844 65.460938 137.9375 64.691406 138.132812 64.105469 C 138.328125 63.519531 138.613281 63.070312 138.992188 62.757812 C 139.382812 62.445312 139.871094 62.289062 140.457031 62.289062 C 140.898438 62.289062 141.28125 62.382812 141.609375 62.5625 C 141.933594 62.734375 142.199219 62.984375 142.410156 63.304688 C 142.617188 63.632812 142.78125 64.027344 142.898438 64.496094 C 143.027344 64.964844 143.09375 65.605469 143.09375 66.410156 C 143.09375 67.347656 142.996094 68.109375 142.800781 68.695312 C 142.605469 69.273438 142.3125 69.71875 141.921875 70.042969 C 141.542969 70.355469 141.054688 70.511719 140.457031 70.511719 C 139.6875 70.511719 139.082031 70.234375 138.640625 69.671875 C 138.105469 69.007812 137.839844 67.921875 137.839844 66.410156 Z M 138.855469 66.410156 C 138.855469 67.726562 139.003906 68.609375 139.304688 69.046875 C 139.617188 69.476562 140 69.691406 140.457031 69.691406 C 140.910156 69.691406 141.296875 69.476562 141.609375 69.046875 C 141.921875 68.609375 142.078125 67.726562 142.078125 66.410156 C 142.078125 65.082031 141.921875 64.203125 141.609375 63.773438 C 141.296875 63.335938 140.910156 63.109375 140.457031 63.109375 C 140 63.109375 139.636719 63.300781 139.363281 63.675781 C 139.023438 64.171875 138.855469 65.082031 138.855469 66.410156 Z M 138.855469 66.410156 "/>
<path style="fill-rule:nonzero;fill:rgb(100%,100%,100%);fill-opacity:1;stroke-width:1;stroke-linecap:round;stroke-linejoin:round;stroke:rgb(0%,0%,0%);stroke-opacity:1;stroke-miterlimit:10;" d="M 875.4 245.8 L 893.4 245.8 L 893.4 263.8 L 875.4 263.8 Z M 875.4 245.8 " transform="matrix(1.25,0,0,1.25,-920,-228.75)"/>
<path style="fill-rule:nonzero;fill:rgb(100%,100%,100%);fill-opacity:1;stroke-width:1;stroke-linecap:round;stroke-linejoin:round;stroke:rgb(0%,0%,0%);stroke-opacity:1;stroke-miterlimit:10;" d="M 875.4 209.8 L 893.4 209.8 L 893.4 227.8 L 875.4 227.8 Z M 875.4 209.8 " transform="matrix(1.25,0,0,1.25,-920,-228.75)"/>
<path style="fill-rule:nonzero;fill:rgb(69.803922%,85.098039%,100%);fill-opacity:1;stroke-width:1;stroke-linecap:round;stroke-linejoin:round;stroke:rgb(0%,0%,0%);stroke-opacity:1;stroke-miterlimit:10;" d="M 839.4 209.8 L 857.4 209.8 L 857.4 227.8 L 839.4 227.8 Z M 839.4 209.8 " transform="matrix(1.25,0,0,1.25,-920,-228.75)"/>
<path style=" stroke:none;fill-rule:nonzero;fill:rgb(0%,0%,0%);fill-opacity:1;" d="M 137.839844 43.910156 C 137.839844 42.960938 137.9375 42.191406 138.132812 41.605469 C 138.328125 41.019531 138.613281 40.570312 138.992188 40.257812 C 139.382812 39.945312 139.871094 39.789062 140.457031 39.789062 C 140.898438 39.789062 141.28125 39.882812 141.609375 40.0625 C 141.933594 40.234375 142.199219 40.484375 142.410156 40.804688 C 142.617188 41.132812 142.78125 41.527344 142.898438 41.996094 C 143.027344 42.464844 143.09375 43.105469 143.09375 43.910156 C 143.09375 44.847656 142.996094 45.609375 142.800781 46.195312 C 142.605469 46.773438 142.3125 47.21875 141.921875 47.542969 C 141.542969 47.855469 141.054688 48.011719 140.457031 48.011719 C 139.6875 48.011719 139.082031 47.734375 138.640625 47.171875 C 138.105469 46.507812 137.839844 45.421875 137.839844 43.910156 Z M 138.855469 43.910156 C 138.855469 45.226562 139.003906 46.109375 139.304688 46.546875 C 139.617188 46.976562 140 47.191406 140.457031 47.191406 C 140.910156 47.191406 141.296875 46.976562 141.609375 46.546875 C 141.921875 46.109375 142.078125 45.226562 142.078125 43.910156 C 142.078125 42.582031 141.921875 41.703125 141.609375 41.273438 C 141.296875 40.835938 140.910156 40.609375 140.457031 40.609375 C 140 40.609375 139.636719 40.800781 139.363281 41.175781 C 139.023438 41.671875 138.855469 42.582031 138.855469 43.910156 Z M 138.855469 43.910156 "/>
<path style="fill-rule:nonzero;fill:rgb(69.803922%,85.098039%,100%);fill-opacity:1;stroke-width:1;stroke-linecap:round;stroke-linejoin:round;stroke:rgb(0%,0%,0%);stroke-opacity:1;stroke-miterlimit:10;" d="M 786.528125 237.88125 L 804.528125 237.88125 L 804.528125 255.88125 L 786.528125 255.88125 Z M 786.528125 237.88125 " transform="matrix(1.25,0,0,1.25,-920,-228.75)"/>
<path style=" stroke:none;fill-rule:nonzero;fill:rgb(0%,0%,0%);fill-opacity:1;" d="M 76.945312 82.023438 L 76.945312 82.980469 L 71.613281 82.980469 C 71.613281 82.746094 71.652344 82.519531 71.730469 82.296875 C 71.875 81.933594 72.09375 81.574219 72.394531 81.222656 C 72.695312 80.871094 73.125 80.46875 73.683594 80.011719 C 74.554688 79.28125 75.140625 78.710938 75.441406 78.292969 C 75.753906 77.875 75.910156 77.480469 75.910156 77.101562 C 75.910156 76.710938 75.765625 76.386719 75.480469 76.125 C 75.207031 75.851562 74.847656 75.714844 74.40625 75.714844 C 73.925781 75.714844 73.539062 75.859375 73.253906 76.144531 C 72.96875 76.429688 72.824219 76.828125 72.824219 77.335938 L 71.808594 77.21875 C 71.875 76.464844 72.132812 75.890625 72.589844 75.5 C 73.046875 75.097656 73.65625 74.894531 74.425781 74.894531 C 75.195312 74.894531 75.800781 75.109375 76.242188 75.539062 C 76.699219 75.96875 76.925781 76.496094 76.925781 77.121094 C 76.925781 77.445312 76.859375 77.765625 76.730469 78.078125 C 76.601562 78.390625 76.378906 78.722656 76.066406 79.074219 C 75.765625 79.414062 75.265625 79.882812 74.5625 80.480469 C 73.964844 80.976562 73.578125 81.3125 73.410156 81.496094 C 73.242188 81.679688 73.105469 81.855469 73 82.023438 Z M 76.945312 82.023438 "/>
<path style="fill-rule:nonzero;fill:rgb(69.803922%,85.098039%,100%);fill-opacity:1;stroke-width:1;stroke-linecap:round;stroke-linejoin:round;stroke:rgb(0%,0%,0%);stroke-opacity:1;stroke-miterlimit:10;" d="M 804.528125 237.88125 L 822.528125 237.88125 L 822.528125 255.88125 L 804.528125 255.88125 Z M 804.528125 237.88125 " transform="matrix(1.25,0,0,1.25,-920,-228.75)"/>
<path style=" stroke:none;fill-rule:nonzero;fill:rgb(0%,0%,0%);fill-opacity:1;" d="M 94.25 80.851562 L 95.246094 80.714844 C 95.363281 81.273438 95.550781 81.679688 95.8125 81.925781 C 96.085938 82.171875 96.425781 82.296875 96.828125 82.296875 C 97.285156 82.296875 97.667969 82.140625 97.980469 81.828125 C 98.304688 81.503906 98.46875 81.097656 98.46875 80.617188 C 98.46875 80.160156 98.320312 79.789062 98.019531 79.503906 C 97.734375 79.203125 97.363281 79.054688 96.90625 79.054688 C 96.710938 79.054688 96.476562 79.09375 96.203125 79.171875 L 96.320312 78.292969 C 96.386719 78.304688 96.4375 78.3125 96.476562 78.3125 C 96.894531 78.3125 97.269531 78.203125 97.609375 77.980469 C 97.949219 77.757812 98.117188 77.421875 98.117188 76.964844 C 98.117188 76.601562 97.992188 76.300781 97.746094 76.066406 C 97.5 75.832031 97.179688 75.714844 96.789062 75.714844 C 96.410156 75.714844 96.09375 75.839844 95.832031 76.085938 C 95.585938 76.320312 95.421875 76.679688 95.34375 77.160156 L 94.347656 76.984375 C 94.476562 76.320312 94.75 75.804688 95.167969 75.441406 C 95.597656 75.078125 96.132812 74.894531 96.769531 74.894531 C 97.210938 74.894531 97.617188 74.992188 97.980469 75.1875 C 98.359375 75.371094 98.644531 75.625 98.839844 75.949219 C 99.035156 76.273438 99.132812 76.621094 99.132812 76.984375 C 99.132812 77.335938 99.035156 77.65625 98.839844 77.941406 C 98.65625 78.226562 98.382812 78.457031 98.019531 78.625 C 98.5 78.730469 98.871094 78.957031 99.132812 79.308594 C 99.394531 79.648438 99.523438 80.078125 99.523438 80.597656 C 99.523438 81.300781 99.261719 81.898438 98.742188 82.394531 C 98.234375 82.875 97.589844 83.117188 96.808594 83.117188 C 96.105469 83.117188 95.519531 82.910156 95.050781 82.492188 C 94.582031 82.074219 94.316406 81.527344 94.25 80.851562 Z M 94.25 80.851562 "/>
<path style="fill-rule:nonzero;fill:rgb(69.803922%,85.098039%,100%);fill-opacity:1;stroke-width:1;stroke-linecap:round;stroke-linejoin:round;stroke:rgb(0%,0%,0%);stroke-opacity:1;stroke-miterlimit:10;" d="M 804.528125 219.88125 L 822.528125 219.88125 L 822.528125 237.88125 L 804.528125 237.88125 Z M 804.528125 219.88125 " transform="matrix(1.25,0,0,1.25,-920,-228.75)"/>
<path style=" stroke:none;fill-rule:nonzero;fill:rgb(0%,0%,0%);fill-opacity:1;" d="M 97.980469 60.480469 L 96.984375 60.480469 L 96.984375 54.171875 C 96.75 54.40625 96.4375 54.640625 96.046875 54.875 C 95.65625 55.097656 95.3125 55.257812 95.011719 55.363281 L 95.011719 54.40625 C 95.558594 54.160156 96.039062 53.851562 96.457031 53.488281 C 96.875 53.109375 97.167969 52.746094 97.335938 52.394531 L 97.980469 52.394531 Z M 97.980469 60.480469 "/>
<path style="fill-rule:nonzero;fill:rgb(69.803922%,85.098039%,100%);fill-opacity:1;stroke-width:1;stroke-linecap:round;stroke-linejoin:round;stroke:rgb(0%,0%,0%);stroke-opacity:1;stroke-miterlimit:10;" d="M 786.528125 219.88125 L 804.528125 219.88125 L 804.528125 237.88125 L 786.528125 237.88125 Z M 786.528125 219.88125 " transform="matrix(1.25,0,0,1.25,-920,-228.75)"/>
<path style=" stroke:none;fill-rule:nonzero;fill:rgb(0%,0%,0%);fill-opacity:1;" d="M 71.75 56.515625 C 71.75 55.566406 71.847656 54.796875 72.042969 54.210938 C 72.238281 53.625 72.523438 53.175781 72.902344 52.863281 C 73.292969 52.550781 73.78125 52.394531 74.367188 52.394531 C 74.808594 52.394531 75.195312 52.484375 75.519531 52.667969 C 75.84375 52.835938 76.113281 53.085938 76.320312 53.410156 C 76.527344 53.734375 76.691406 54.132812 76.808594 54.601562 C 76.9375 55.070312 77.003906 55.707031 77.003906 56.515625 C 77.003906 57.453125 76.90625 58.214844 76.710938 58.800781 C 76.515625 59.375 76.222656 59.824219 75.832031 60.148438 C 75.453125 60.460938 74.964844 60.617188 74.367188 60.617188 C 73.597656 60.617188 72.992188 60.335938 72.550781 59.777344 C 72.015625 59.113281 71.75 58.027344 71.75 56.515625 Z M 72.765625 56.515625 C 72.765625 57.832031 72.914062 58.710938 73.214844 59.152344 C 73.527344 59.582031 73.910156 59.796875 74.367188 59.796875 C 74.824219 59.796875 75.207031 59.582031 75.519531 59.152344 C 75.832031 58.710938 75.988281 57.832031 75.988281 56.515625 C 75.988281 55.1875 75.832031 54.308594 75.519531 53.878906 C 75.207031 53.4375 74.824219 53.214844 74.367188 53.214844 C 73.910156 53.214844 73.546875 53.402344 73.273438 53.78125 C 72.933594 54.277344 72.765625 55.1875 72.765625 56.515625 Z M 72.765625 56.515625 "/>
<path style=" stroke:none;fill-rule:nonzero;fill:rgb(0%,0%,0%);fill-opacity:1;" d="M 489.660156 13.15625 C 489.660156 11.828125 490.015625 10.789062 490.734375 10.03125 C 491.449219 9.265625 492.375 8.878906 493.507812 8.878906 C 494.25 8.878906 494.917969 9.066406 495.519531 9.425781 C 496.117188 9.777344 496.574219 10.277344 496.886719 10.910156 C 497.199219 11.550781 497.355469 12.269531 497.355469 13.058594 C 497.355469 13.878906 497.191406 14.617188 496.867188 15.265625 C 496.539062 15.90625 496.070312 16.394531 495.460938 16.730469 C 494.859375 17.058594 494.210938 17.21875 493.507812 17.21875 C 492.75 17.21875 492.074219 17.039062 491.476562 16.671875 C 490.875 16.3125 490.421875 15.808594 490.109375 15.167969 C 489.808594 14.535156 489.660156 13.859375 489.660156 13.15625 Z M 490.753906 13.175781 C 490.753906 14.152344 491.011719 14.925781 491.535156 15.480469 C 492.054688 16.027344 492.710938 16.300781 493.507812 16.300781 C 494.300781 16.300781 494.957031 16.023438 495.480469 15.460938 C 496 14.90625 496.261719 14.105469 496.261719 13.058594 C 496.261719 12.410156 496.148438 11.84375 495.929688 11.359375 C 495.707031 10.867188 495.382812 10.480469 494.953125 10.207031 C 494.523438 9.933594 494.046875 9.796875 493.527344 9.796875 C 492.769531 9.796875 492.121094 10.0625 491.574219 10.578125 C 491.027344 11.101562 490.753906 11.964844 490.753906 13.175781 Z M 490.753906 13.175781 "/>
<path style=" stroke:none;fill-rule:nonzero;fill:rgb(0%,0%,0%);fill-opacity:1;" d="M 502.433594 17.082031 L 502.433594 16.222656 C 501.976562 16.886719 501.359375 17.21875 500.578125 17.21875 C 500.238281 17.21875 499.917969 17.152344 499.621094 17.023438 C 499.320312 16.882812 499.09375 16.710938 498.9375 16.515625 C 498.792969 16.320312 498.695312 16.082031 498.644531 15.792969 C 498.605469 15.597656 498.585938 15.285156 498.585938 14.855469 L 498.585938 11.242188 L 499.5625 11.242188 L 499.5625 14.484375 C 499.5625 15.007812 499.585938 15.355469 499.640625 15.519531 C 499.691406 15.785156 499.816406 15.988281 500.011719 16.144531 C 500.21875 16.292969 500.472656 16.359375 500.773438 16.359375 C 501.070312 16.359375 501.351562 16.292969 501.613281 16.144531 C 501.871094 15.988281 502.054688 15.785156 502.160156 15.519531 C 502.261719 15.261719 502.316406 14.875 502.316406 14.367188 L 502.316406 11.242188 L 503.3125 11.242188 L 503.3125 17.082031 Z M 502.433594 17.082031 "/>
<path style=" stroke:none;fill-rule:nonzero;fill:rgb(0%,0%,0%);fill-opacity:1;" d="M 507.027344 16.203125 L 507.164062 17.0625 C 506.875 17.128906 506.625 17.160156 506.421875 17.160156 C 506.054688 17.160156 505.777344 17.101562 505.582031 16.984375 C 505.386719 16.867188 505.238281 16.722656 505.152344 16.535156 C 505.074219 16.355469 505.035156 15.96875 505.035156 15.382812 L 505.035156 12.023438 L 504.3125 12.023438 L 504.3125 11.242188 L 505.035156 11.242188 L 505.035156 9.796875 L 506.03125 9.210938 L 506.03125 11.242188 L 507.027344 11.242188 L 507.027344 12.023438 L 506.03125 12.023438 L 506.03125 15.421875 C 506.03125 15.710938 506.039062 15.890625 506.070312 15.96875 C 506.109375 16.046875 506.167969 16.117188 506.246094 16.164062 C 506.324219 16.21875 506.429688 16.242188 506.578125 16.242188 C 506.695312 16.242188 506.839844 16.234375 507.027344 16.203125 Z M 507.027344 16.203125 "/>
<path style=" stroke:none;fill-rule:nonzero;fill:rgb(0%,0%,0%);fill-opacity:1;" d="M 507.984375 19.308594 L 507.984375 11.242188 L 508.882812 11.242188 L 508.882812 12.003906 C 509.085938 11.707031 509.320312 11.488281 509.585938 11.339844 C 509.859375 11.199219 510.191406 11.125 510.582031 11.125 C 511.074219 11.125 511.507812 11.257812 511.890625 11.515625 C 512.265625 11.765625 512.554688 12.121094 512.75 12.589844 C 512.945312 13.058594 513.042969 13.566406 513.042969 14.113281 C 513.042969 14.714844 512.929688 15.257812 512.710938 15.734375 C 512.5 16.21875 512.191406 16.589844 511.792969 16.847656 C 511.386719 17.09375 510.957031 17.21875 510.503906 17.21875 C 510.175781 17.21875 509.882812 17.148438 509.625 17.003906 C 509.359375 16.863281 509.144531 16.6875 508.980469 16.476562 L 508.980469 19.308594 Z M 508.882812 14.191406 C 508.882812 14.949219 509.027344 15.511719 509.332031 15.871094 C 509.644531 16.222656 510.015625 16.398438 510.445312 16.398438 C 510.875 16.398438 511.246094 16.21875 511.558594 15.851562 C 511.878906 15.476562 512.046875 14.894531 512.046875 14.113281 C 512.046875 13.371094 511.890625 12.820312 511.578125 12.453125 C 511.273438 12.078125 510.914062 11.886719 510.484375 11.886719 C 510.0625 11.886719 509.691406 12.09375 509.371094 12.492188 C 509.042969 12.882812 508.882812 13.449219 508.882812 14.191406 Z M 508.882812 14.191406 "/>
<path style=" stroke:none;fill-rule:nonzero;fill:rgb(0%,0%,0%);fill-opacity:1;" d="M 518.066406 17.082031 L 518.066406 16.222656 C 517.605469 16.886719 516.992188 17.21875 516.210938 17.21875 C 515.867188 17.21875 515.550781 17.152344 515.253906 17.023438 C 514.949219 16.882812 514.726562 16.710938 514.570312 16.515625 C 514.421875 16.320312 514.324219 16.082031 514.277344 15.792969 C 514.238281 15.597656 514.21875 15.285156 514.21875 14.855469 L 514.21875 11.242188 L 515.195312 11.242188 L 515.195312 14.484375 C 515.195312 15.007812 515.21875 15.355469 515.273438 15.519531 C 515.320312 15.785156 515.449219 15.988281 515.644531 16.144531 C 515.847656 16.292969 516.101562 16.359375 516.40625 16.359375 C 516.703125 16.359375 516.980469 16.292969 517.246094 16.144531 C 517.503906 15.988281 517.683594 15.785156 517.792969 15.519531 C 517.894531 15.261719 517.949219 14.875 517.949219 14.367188 L 517.949219 11.242188 L 518.945312 11.242188 L 518.945312 17.082031 Z M 518.066406 17.082031 "/>
<path style=" stroke:none;fill-rule:nonzero;fill:rgb(0%,0%,0%);fill-opacity:1;" d="M 522.65625 16.203125 L 522.792969 17.0625 C 522.507812 17.128906 522.257812 17.160156 522.050781 17.160156 C 521.6875 17.160156 521.40625 17.101562 521.210938 16.984375 C 521.015625 16.867188 520.871094 16.722656 520.78125 16.535156 C 520.703125 16.355469 520.664062 15.96875 520.664062 15.382812 L 520.664062 12.023438 L 519.941406 12.023438 L 519.941406 11.242188 L 520.664062 11.242188 L 520.664062 9.796875 L 521.660156 9.210938 L 521.660156 11.242188 L 522.65625 11.242188 L 522.65625 12.023438 L 521.660156 12.023438 L 521.660156 15.421875 C 521.660156 15.710938 521.671875 15.890625 521.699219 15.96875 C 521.738281 16.046875 521.796875 16.117188 521.875 16.164062 C 521.953125 16.21875 522.0625 16.242188 522.207031 16.242188 C 522.324219 16.242188 522.472656 16.234375 522.65625 16.203125 Z M 522.65625 16.203125 "/>
<path style=" stroke:none;fill-rule:nonzero;fill:rgb(0%,0%,0%);fill-opacity:1;" d="M 70.804688 17.082031 L 70.804688 9.035156 L 71.878906 9.035156 L 71.878906 13.019531 L 75.882812 9.035156 L 77.308594 9.035156 L 73.949219 12.296875 L 77.464844 17.082031 L 76.058594 17.082031 L 73.1875 13 L 71.878906 14.289062 L 71.878906 17.082031 Z M 70.804688 17.082031 "/>
<path style=" stroke:none;fill-rule:nonzero;fill:rgb(0%,0%,0%);fill-opacity:1;" d="M 82.214844 15.207031 L 83.25 15.324219 C 83.082031 15.925781 82.773438 16.394531 82.332031 16.730469 C 81.902344 17.058594 81.347656 17.21875 80.671875 17.21875 C 79.824219 17.21875 79.148438 16.960938 78.640625 16.4375 C 78.144531 15.90625 77.898438 15.164062 77.898438 14.210938 C 77.898438 13.234375 78.152344 12.484375 78.660156 11.945312 C 79.167969 11.398438 79.824219 11.125 80.632812 11.125 C 81.414062 11.125 82.046875 11.394531 82.527344 11.925781 C 83.023438 12.449219 83.269531 13.191406 83.269531 14.152344 C 83.269531 14.222656 83.269531 14.308594 83.269531 14.425781 L 78.914062 14.425781 C 78.953125 15.066406 79.136719 15.554688 79.460938 15.890625 C 79.785156 16.234375 80.195312 16.398438 80.691406 16.398438 C 81.054688 16.398438 81.363281 16.3125 81.609375 16.125 C 81.871094 15.929688 82.070312 15.628906 82.214844 15.207031 Z M 78.972656 13.605469 L 82.234375 13.605469 C 82.195312 13.113281 82.070312 12.742188 81.863281 12.492188 C 81.550781 12.117188 81.140625 11.925781 80.632812 11.925781 C 80.175781 11.925781 79.792969 12.082031 79.480469 12.394531 C 79.179688 12.699219 79.011719 13.097656 78.972656 13.605469 Z M 78.972656 13.605469 "/>
<path style=" stroke:none;fill-rule:nonzero;fill:rgb(0%,0%,0%);fill-opacity:1;" d="M 84.46875 17.082031 L 84.46875 11.242188 L 85.367188 11.242188 L 85.367188 12.140625 C 85.585938 11.726562 85.796875 11.453125 85.992188 11.320312 C 86.1875 11.195312 86.402344 11.125 86.636719 11.125 C 86.960938 11.125 87.300781 11.234375 87.652344 11.4375 L 87.300781 12.355469 C 87.066406 12.214844 86.824219 12.140625 86.578125 12.140625 C 86.367188 12.140625 86.171875 12.210938 85.992188 12.335938 C 85.820312 12.46875 85.699219 12.648438 85.621094 12.882812 C 85.515625 13.234375 85.464844 13.621094 85.464844 14.035156 L 85.464844 17.082031 Z M 84.46875 17.082031 "/>
<path style=" stroke:none;fill-rule:nonzero;fill:rgb(0%,0%,0%);fill-opacity:1;" d="M 88.234375 17.082031 L 88.234375 11.242188 L 89.132812 11.242188 L 89.132812 12.082031 C 89.546875 11.449219 90.167969 11.125 90.988281 11.125 C 91.339844 11.125 91.65625 11.195312 91.945312 11.320312 C 92.242188 11.4375 92.464844 11.605469 92.609375 11.808594 C 92.75 12.003906 92.855469 12.25 92.921875 12.53125 C 92.960938 12.71875 92.980469 13.035156 92.980469 13.488281 L 92.980469 17.082031 L 91.984375 17.082031 L 91.984375 13.527344 C 91.984375 13.128906 91.945312 12.824219 91.867188 12.628906 C 91.789062 12.433594 91.652344 12.277344 91.457031 12.160156 C 91.261719 12.035156 91.03125 11.964844 90.773438 11.964844 C 90.355469 11.964844 89.992188 12.101562 89.679688 12.375 C 89.378906 12.640625 89.230469 13.148438 89.230469 13.898438 L 89.230469 17.082031 Z M 88.234375 17.082031 "/>
<path style=" stroke:none;fill-rule:nonzero;fill:rgb(0%,0%,0%);fill-opacity:1;" d="M 98.476562 15.207031 L 99.511719 15.324219 C 99.339844 15.925781 99.035156 16.394531 98.59375 16.730469 C 98.164062 17.058594 97.609375 17.21875 96.933594 17.21875 C 96.085938 17.21875 95.410156 16.960938 94.902344 16.4375 C 94.40625 15.90625 94.160156 15.164062 94.160156 14.210938 C 94.160156 13.234375 94.414062 12.484375 94.921875 11.945312 C 95.429688 11.398438 96.085938 11.125 96.894531 11.125 C 97.675781 11.125 98.304688 11.394531 98.789062 11.925781 C 99.28125 12.449219 99.53125 13.191406 99.53125 14.152344 C 99.53125 14.222656 99.53125 14.308594 99.53125 14.425781 L 95.175781 14.425781 C 95.214844 15.066406 95.394531 15.554688 95.722656 15.890625 C 96.046875 16.234375 96.457031 16.398438 96.953125 16.398438 C 97.316406 16.398438 97.621094 16.3125 97.871094 16.125 C 98.128906 15.929688 98.332031 15.628906 98.476562 15.207031 Z M 95.234375 13.605469 L 98.496094 13.605469 C 98.457031 13.113281 98.332031 12.742188 98.125 12.492188 C 97.8125 12.117188 97.402344 11.925781 96.894531 11.925781 C 96.4375 11.925781 96.054688 12.082031 95.742188 12.394531 C 95.441406 12.699219 95.273438 13.097656 95.234375 13.605469 Z M 95.234375 13.605469 "/>
<path style=" stroke:none;fill-rule:nonzero;fill:rgb(0%,0%,0%);fill-opacity:1;" d="M 100.730469 17.082031 L 100.730469 9.035156 L 101.707031 9.035156 L 101.707031 17.082031 Z M 100.730469 17.082031 "/>
<path style=" stroke:none;fill-rule:nonzero;fill:rgb(0%,0%,0%);fill-opacity:1;" d="M 14.164062 17.082031 L 14.164062 9.035156 L 15.21875 9.035156 L 15.21875 17.082031 Z M 14.164062 17.082031 "/>
<path style=" stroke:none;fill-rule:nonzero;fill:rgb(0%,0%,0%);fill-opacity:1;" d="M 16.976562 17.082031 L 16.976562 11.242188 L 17.875 11.242188 L 17.875 12.082031 C 18.289062 11.449219 18.910156 11.125 19.730469 11.125 C 20.082031 11.125 20.398438 11.195312 20.6875 11.320312 C 20.984375 11.4375 21.207031 11.605469 21.351562 11.808594 C 21.492188 12.003906 21.597656 12.25 21.664062 12.53125 C 21.703125 12.71875 21.722656 13.035156 21.722656 13.488281 L 21.722656 17.082031 L 20.726562 17.082031 L 20.726562 13.527344 C 20.726562 13.128906 20.6875 12.824219 20.609375 12.628906 C 20.53125 12.433594 20.394531 12.277344 20.199219 12.160156 C 20.003906 12.035156 19.773438 11.964844 19.515625 11.964844 C 19.097656 11.964844 18.734375 12.101562 18.421875 12.375 C 18.121094 12.640625 17.972656 13.148438 17.972656 13.898438 L 17.972656 17.082031 Z M 16.976562 17.082031 "/>
<path style=" stroke:none;fill-rule:nonzero;fill:rgb(0%,0%,0%);fill-opacity:1;" d="M 23.230469 19.308594 L 23.230469 11.242188 L 24.128906 11.242188 L 24.128906 12.003906 C 24.332031 11.707031 24.566406 11.488281 24.832031 11.339844 C 25.105469 11.199219 25.4375 11.125 25.828125 11.125 C 26.320312 11.125 26.753906 11.257812 27.136719 11.515625 C 27.511719 11.765625 27.800781 12.121094 27.996094 12.589844 C 28.191406 13.058594 28.289062 13.566406 28.289062 14.113281 C 28.289062 14.714844 28.175781 15.257812 27.957031 15.734375 C 27.746094 16.21875 27.4375 16.589844 27.039062 16.847656 C 26.632812 17.09375 26.203125 17.21875 25.75 17.21875 C 25.421875 17.21875 25.128906 17.148438 24.871094 17.003906 C 24.605469 16.863281 24.390625 16.6875 24.226562 16.476562 L 24.226562 19.308594 Z M 24.128906 14.191406 C 24.128906 14.949219 24.273438 15.511719 24.578125 15.871094 C 24.890625 16.222656 25.261719 16.398438 25.691406 16.398438 C 26.121094 16.398438 26.492188 16.21875 26.804688 15.851562 C 27.125 15.476562 27.292969 14.894531 27.292969 14.113281 C 27.292969 13.371094 27.136719 12.820312 26.824219 12.453125 C 26.519531 12.078125 26.160156 11.886719 25.730469 11.886719 C 25.308594 11.886719 24.9375 12.09375 24.617188 12.492188 C 24.289062 12.882812 24.128906 13.449219 24.128906 14.191406 Z M 24.128906 14.191406 "/>
<path style=" stroke:none;fill-rule:nonzero;fill:rgb(0%,0%,0%);fill-opacity:1;" d="M 33.3125 17.082031 L 33.3125 16.222656 C 32.851562 16.886719 32.238281 17.21875 31.457031 17.21875 C 31.113281 17.21875 30.796875 17.152344 30.5 17.023438 C 30.195312 16.882812 29.972656 16.710938 29.816406 16.515625 C 29.667969 16.320312 29.570312 16.082031 29.523438 15.792969 C 29.484375 15.597656 29.464844 15.285156 29.464844 14.855469 L 29.464844 11.242188 L 30.441406 11.242188 L 30.441406 14.484375 C 30.441406 15.007812 30.464844 15.355469 30.519531 15.519531 C 30.566406 15.785156 30.695312 15.988281 30.890625 16.144531 C 31.09375 16.292969 31.347656 16.359375 31.652344 16.359375 C 31.949219 16.359375 32.226562 16.292969 32.492188 16.144531 C 32.75 15.988281 32.929688 15.785156 33.039062 15.519531 C 33.140625 15.261719 33.195312 14.875 33.195312 14.367188 L 33.195312 11.242188 L 34.191406 11.242188 L 34.191406 17.082031 Z M 33.3125 17.082031 "/>
<path style=" stroke:none;fill-rule:nonzero;fill:rgb(0%,0%,0%);fill-opacity:1;" d="M 37.902344 16.203125 L 38.039062 17.0625 C 37.753906 17.128906 37.503906 17.160156 37.296875 17.160156 C 36.933594 17.160156 36.652344 17.101562 36.457031 16.984375 C 36.261719 16.867188 36.117188 16.722656 36.027344 16.535156 C 35.949219 16.355469 35.910156 15.96875 35.910156 15.382812 L 35.910156 12.023438 L 35.1875 12.023438 L 35.1875 11.242188 L 35.910156 11.242188 L 35.910156 9.796875 L 36.90625 9.210938 L 36.90625 11.242188 L 37.902344 11.242188 L 37.902344 12.023438 L 36.90625 12.023438 L 36.90625 15.421875 C 36.90625 15.710938 36.917969 15.890625 36.945312 15.96875 C 36.984375 16.046875 37.042969 16.117188 37.121094 16.164062 C 37.199219 16.21875 37.308594 16.242188 37.453125 16.242188 C 37.570312 16.242188 37.71875 16.234375 37.902344 16.203125 Z M 37.902344 16.203125 "/>
<path style=" stroke:none;fill-rule:nonzero;fill:rgb(0%,0%,0%);fill-opacity:1;" d="M 120.347656 67.210938 L 115.035156 67.210938 L 115.035156 66.273438 L 120.347656 66.273438 Z M 120.347656 69.652344 L 115.035156 69.652344 L 115.035156 68.714844 L 120.347656 68.714844 Z M 120.347656 69.652344 "/>
<path style="fill-rule:nonzero;fill:rgb(100%,100%,100%);fill-opacity:1;stroke-width:1;stroke-linecap:round;stroke-linejoin:round;stroke:rgb(0%,0%,0%);stroke-opacity:1;stroke-miterlimit:10;" d="M 926 245.8 L 944 245.8 L 944 263.8 L 926 263.8 Z M 926 245.8 " transform="matrix(1.25,0,0,1.25,-920,-228.75)"/>
<path style="fill-rule:nonzero;fill:rgb(100%,100%,100%);fill-opacity:1;stroke-width:1;stroke-linecap:round;stroke-linejoin:round;stroke:rgb(0%,0%,0%);stroke-opacity:1;stroke-miterlimit:10;" d="M 926 209.8 L 944 209.8 L 944 227.8 L 926 227.8 Z M 926 209.8 " transform="matrix(1.25,0,0,1.25,-920,-228.75)"/>
<path style=" stroke:none;fill-rule:nonzero;fill:rgb(0%,0%,0%);fill-opacity:1;" d="M 246.089844 43.910156 C 246.089844 42.960938 246.1875 42.191406 246.382812 41.605469 C 246.578125 41.019531 246.863281 40.570312 247.242188 40.257812 C 247.632812 39.945312 248.121094 39.789062 248.707031 39.789062 C 249.148438 39.789062 249.53125 39.882812 249.859375 40.0625 C 250.183594 40.234375 250.449219 40.484375 250.660156 40.804688 C 250.867188 41.132812 251.03125 41.527344 251.148438 41.996094 C 251.277344 42.464844 251.34375 43.105469 251.34375 43.910156 C 251.34375 44.847656 251.246094 45.609375 251.050781 46.195312 C 250.855469 46.773438 250.5625 47.21875 250.171875 47.542969 C 249.792969 47.855469 249.304688 48.011719 248.707031 48.011719 C 247.9375 48.011719 247.332031 47.734375 246.890625 47.171875 C 246.355469 46.507812 246.089844 45.421875 246.089844 43.910156 Z M 247.105469 43.910156 C 247.105469 45.226562 247.253906 46.109375 247.554688 46.546875 C 247.867188 46.976562 248.25 47.191406 248.707031 47.191406 C 249.160156 47.191406 249.546875 46.976562 249.859375 46.546875 C 250.171875 46.109375 250.328125 45.226562 250.328125 43.910156 C 250.328125 42.582031 250.171875 41.703125 249.859375 41.273438 C 249.546875 40.835938 249.160156 40.609375 248.707031 40.609375 C 248.25 40.609375 247.886719 40.800781 247.613281 41.175781 C 247.273438 41.671875 247.105469 42.582031 247.105469 43.910156 Z M 247.105469 43.910156 "/>
<path style="fill-rule:nonzero;fill:rgb(100%,100%,100%);fill-opacity:1;stroke-width:1;stroke-linecap:round;stroke-linejoin:round;stroke:rgb(0%,0%,0%);stroke-opacity:1;stroke-miterlimit:10;" d="M 926 227.8 L 944 227.8 L 944 245.8 L 926 245.8 Z M 926 227.8 " transform="matrix(1.25,0,0,1.25,-920,-228.75)"/>
<path style=" stroke:none;fill-rule:nonzero;fill:rgb(0%,0%,0%);fill-opacity:1;" d="M 251.285156 69.417969 L 251.285156 70.375 L 245.953125 70.375 C 245.953125 70.140625 245.992188 69.914062 246.070312 69.691406 C 246.210938 69.328125 246.433594 68.96875 246.734375 68.617188 C 247.03125 68.265625 247.460938 67.867188 248.023438 67.40625 C 248.894531 66.679688 249.480469 66.109375 249.78125 65.6875 C 250.09375 65.273438 250.25 64.875 250.25 64.496094 C 250.25 64.105469 250.105469 63.78125 249.820312 63.519531 C 249.546875 63.246094 249.1875 63.109375 248.746094 63.109375 C 248.261719 63.109375 247.878906 63.257812 247.59375 63.539062 C 247.304688 63.828125 247.164062 64.222656 247.164062 64.730469 L 246.148438 64.613281 C 246.210938 63.859375 246.472656 63.285156 246.929688 62.894531 C 247.382812 62.492188 247.996094 62.289062 248.765625 62.289062 C 249.53125 62.289062 250.136719 62.503906 250.582031 62.933594 C 251.035156 63.363281 251.265625 63.890625 251.265625 64.515625 C 251.265625 64.84375 251.199219 65.160156 251.070312 65.472656 C 250.9375 65.785156 250.71875 66.117188 250.40625 66.46875 C 250.105469 66.8125 249.605469 67.28125 248.902344 67.875 C 248.300781 68.375 247.917969 68.710938 247.75 68.890625 C 247.578125 69.078125 247.441406 69.25 247.339844 69.417969 Z M 251.285156 69.417969 "/>
<path style="fill-rule:nonzero;fill:rgb(100%,100%,100%);fill-opacity:1;stroke-width:1;stroke-linecap:round;stroke-linejoin:round;stroke:rgb(0%,0%,0%);stroke-opacity:1;stroke-miterlimit:10;" d="M 908 245.8 L 926 245.8 L 926 263.8 L 908 263.8 Z M 908 245.8 " transform="matrix(1.25,0,0,1.25,-920,-228.75)"/>
<path style="fill-rule:nonzero;fill:rgb(100%,100%,100%);fill-opacity:1;stroke-width:1;stroke-linecap:round;stroke-linejoin:round;stroke:rgb(0%,0%,0%);stroke-opacity:1;stroke-miterlimit:10;" d="M 944 227.8 L 962 227.8 L 962 245.8 L 944 245.8 Z M 944 227.8 " transform="matrix(1.25,0,0,1.25,-920,-228.75)"/>
<path style=" stroke:none;fill-rule:nonzero;fill:rgb(0%,0%,0%);fill-opacity:1;" d="M 268.589844 68.246094 L 269.585938 68.109375 C 269.703125 68.671875 269.890625 69.078125 270.152344 69.320312 C 270.425781 69.570312 270.761719 69.691406 271.167969 69.691406 C 271.621094 69.691406 272.007812 69.535156 272.320312 69.222656 C 272.644531 68.898438 272.808594 68.496094 272.808594 68.011719 C 272.808594 67.558594 272.65625 67.1875 272.359375 66.898438 C 272.070312 66.601562 271.699219 66.449219 271.246094 66.449219 C 271.050781 66.449219 270.816406 66.488281 270.542969 66.566406 L 270.660156 65.6875 C 270.722656 65.703125 270.777344 65.707031 270.816406 65.707031 C 271.230469 65.707031 271.609375 65.601562 271.949219 65.375 C 272.285156 65.15625 272.457031 64.820312 272.457031 64.359375 C 272.457031 64 272.332031 63.695312 272.085938 63.460938 C 271.835938 63.226562 271.519531 63.109375 271.128906 63.109375 C 270.75 63.109375 270.429688 63.234375 270.171875 63.480469 C 269.921875 63.714844 269.761719 64.078125 269.683594 64.554688 L 268.6875 64.378906 C 268.816406 63.714844 269.089844 63.203125 269.507812 62.835938 C 269.9375 62.476562 270.46875 62.289062 271.109375 62.289062 C 271.550781 62.289062 271.953125 62.386719 272.320312 62.582031 C 272.695312 62.765625 272.984375 63.023438 273.179688 63.34375 C 273.375 63.671875 273.472656 64.015625 273.472656 64.378906 C 273.472656 64.730469 273.375 65.054688 273.179688 65.335938 C 272.996094 65.625 272.722656 65.851562 272.359375 66.019531 C 272.839844 66.125 273.210938 66.351562 273.472656 66.703125 C 273.730469 67.046875 273.863281 67.476562 273.863281 67.992188 C 273.863281 68.695312 273.601562 69.296875 273.082031 69.789062 C 272.574219 70.273438 271.929688 70.511719 271.148438 70.511719 C 270.445312 70.511719 269.859375 70.304688 269.390625 69.886719 C 268.921875 69.472656 268.652344 68.925781 268.589844 68.246094 Z M 268.589844 68.246094 "/>
<path style="fill-rule:nonzero;fill:rgb(100%,100%,100%);fill-opacity:1;stroke-width:1;stroke-linecap:round;stroke-linejoin:round;stroke:rgb(0%,0%,0%);stroke-opacity:1;stroke-miterlimit:10;" d="M 908 227.8 L 926 227.8 L 926 245.8 L 908 245.8 Z M 908 227.8 " transform="matrix(1.25,0,0,1.25,-920,-228.75)"/>
<path style="fill-rule:nonzero;fill:rgb(100%,100%,100%);fill-opacity:1;stroke-width:1;stroke-linecap:round;stroke-linejoin:round;stroke:rgb(0%,0%,0%);stroke-opacity:1;stroke-miterlimit:10;" d="M 944 245.8 L 962 245.8 L 962 263.8 L 944 263.8 Z M 944 245.8 " transform="matrix(1.25,0,0,1.25,-920,-228.75)"/>
<path style="fill-rule:nonzero;fill:rgb(100%,100%,100%);fill-opacity:1;stroke-width:1;stroke-linecap:round;stroke-linejoin:round;stroke:rgb(0%,0%,0%);stroke-opacity:1;stroke-miterlimit:10;" d="M 944 209.8 L 962 209.8 L 962 227.8 L 944 227.8 Z M 944 209.8 " transform="matrix(1.25,0,0,1.25,-920,-228.75)"/>
<path style=" stroke:none;fill-rule:nonzero;fill:rgb(0%,0%,0%);fill-opacity:1;" d="M 272.320312 47.875 L 271.324219 47.875 L 271.324219 41.566406 C 271.089844 41.800781 270.777344 42.035156 270.386719 42.269531 C 269.996094 42.492188 269.648438 42.65625 269.351562 42.757812 L 269.351562 41.800781 C 269.898438 41.554688 270.378906 41.25 270.796875 40.882812 C 271.210938 40.507812 271.503906 40.140625 271.675781 39.789062 L 272.320312 39.789062 Z M 272.320312 47.875 "/>
<path style="fill-rule:nonzero;fill:rgb(100%,100%,100%);fill-opacity:1;stroke-width:1;stroke-linecap:round;stroke-linejoin:round;stroke:rgb(0%,0%,0%);stroke-opacity:1;stroke-miterlimit:10;" d="M 908 209.8 L 926 209.8 L 926 227.8 L 908 227.8 Z M 908 209.8 " transform="matrix(1.25,0,0,1.25,-920,-228.75)"/>
<path style="fill-rule:nonzero;fill:rgb(100%,100%,100%);fill-opacity:1;stroke-width:1;stroke-linecap:round;stroke-linejoin:round;stroke:rgb(0%,0%,0%);stroke-opacity:1;stroke-miterlimit:10;" d="M 994.6 245.8 L 1012.6 245.8 L 1012.6 263.8 L 994.6 263.8 Z M 994.6 245.8 " transform="matrix(1.25,0,0,1.25,-920,-228.75)"/>
<path style=" stroke:none;fill-rule:nonzero;fill:rgb(0%,0%,0%);fill-opacity:1;" d="M 336.976562 86.800781 L 335.980469 86.878906 C 335.902344 86.488281 335.777344 86.203125 335.609375 86.019531 C 335.347656 85.746094 335.023438 85.609375 334.632812 85.609375 C 334.304688 85.609375 334.027344 85.695312 333.792969 85.863281 C 333.480469 86.097656 333.230469 86.429688 333.050781 86.859375 C 332.878906 87.289062 332.789062 87.910156 332.777344 88.714844 C 333.011719 88.363281 333.296875 88.105469 333.636719 87.933594 C 333.988281 87.753906 334.351562 87.660156 334.730469 87.660156 C 335.394531 87.660156 335.953125 87.90625 336.410156 88.382812 C 336.878906 88.867188 337.113281 89.492188 337.113281 90.257812 C 337.113281 90.765625 337 91.242188 336.78125 91.683594 C 336.558594 92.113281 336.257812 92.445312 335.882812 92.679688 C 335.503906 92.898438 335.074219 93.011719 334.59375 93.011719 C 333.773438 93.011719 333.101562 92.714844 332.582031 92.113281 C 332.058594 91.503906 331.800781 90.5 331.800781 89.105469 C 331.800781 87.558594 332.085938 86.425781 332.660156 85.707031 C 333.152344 85.097656 333.832031 84.789062 334.691406 84.789062 C 335.316406 84.789062 335.828125 84.976562 336.234375 85.335938 C 336.636719 85.6875 336.882812 86.175781 336.976562 86.800781 Z M 332.933594 90.257812 C 332.933594 90.609375 333.003906 90.941406 333.148438 91.253906 C 333.289062 91.554688 333.492188 91.789062 333.753906 91.957031 C 334.011719 92.113281 334.285156 92.191406 334.574219 92.191406 C 334.988281 92.191406 335.347656 92.03125 335.648438 91.703125 C 335.945312 91.367188 336.097656 90.902344 336.097656 90.316406 C 336.097656 89.757812 335.945312 89.320312 335.648438 89.007812 C 335.359375 88.6875 334.988281 88.519531 334.535156 88.519531 C 334.089844 88.519531 333.714844 88.6875 333.402344 89.007812 C 333.089844 89.320312 332.933594 89.742188 332.933594 90.257812 Z M 332.933594 90.257812 "/>
<path style="fill-rule:nonzero;fill:rgb(100%,100%,100%);fill-opacity:1;stroke-width:1;stroke-linecap:round;stroke-linejoin:round;stroke:rgb(0%,0%,0%);stroke-opacity:1;stroke-miterlimit:10;" d="M 994.6 209.8 L 1012.6 209.8 L 1012.6 227.8 L 994.6 227.8 Z M 994.6 209.8 " transform="matrix(1.25,0,0,1.25,-920,-228.75)"/>
<path style="fill-rule:nonzero;fill:rgb(100%,100%,100%);fill-opacity:1;stroke-width:1;stroke-linecap:round;stroke-linejoin:round;stroke:rgb(0%,0%,0%);stroke-opacity:1;stroke-miterlimit:10;" d="M 994.6 227.8 L 1012.6 227.8 L 1012.6 245.8 L 994.6 245.8 Z M 994.6 227.8 " transform="matrix(1.25,0,0,1.25,-920,-228.75)"/>
<path style=" stroke:none;fill-rule:nonzero;fill:rgb(0%,0%,0%);fill-opacity:1;" d="M 337.035156 69.417969 L 337.035156 70.375 L 331.703125 70.375 C 331.703125 70.140625 331.742188 69.914062 331.820312 69.691406 C 331.960938 69.328125 332.183594 68.96875 332.484375 68.617188 C 332.78125 68.265625 333.210938 67.867188 333.773438 67.40625 C 334.644531 66.679688 335.230469 66.109375 335.53125 65.6875 C 335.84375 65.273438 336 64.875 336 64.496094 C 336 64.105469 335.855469 63.78125 335.570312 63.519531 C 335.296875 63.246094 334.9375 63.109375 334.496094 63.109375 C 334.011719 63.109375 333.628906 63.257812 333.34375 63.539062 C 333.054688 63.828125 332.914062 64.222656 332.914062 64.730469 L 331.898438 64.613281 C 331.960938 63.859375 332.222656 63.285156 332.679688 62.894531 C 333.132812 62.492188 333.746094 62.289062 334.515625 62.289062 C 335.28125 62.289062 335.886719 62.503906 336.332031 62.933594 C 336.785156 63.363281 337.015625 63.890625 337.015625 64.515625 C 337.015625 64.84375 336.949219 65.160156 336.820312 65.472656 C 336.6875 65.785156 336.46875 66.117188 336.15625 66.46875 C 335.855469 66.8125 335.355469 67.28125 334.652344 67.875 C 334.050781 68.375 333.667969 68.710938 333.5 68.890625 C 333.328125 69.078125 333.191406 69.25 333.089844 69.417969 Z M 337.035156 69.417969 "/>
<path style="fill-rule:nonzero;fill:rgb(100%,100%,100%);fill-opacity:1;stroke-width:1;stroke-linecap:round;stroke-linejoin:round;stroke:rgb(0%,0%,0%);stroke-opacity:1;stroke-miterlimit:10;" d="M 976.6 245.8 L 994.6 245.8 L 994.6 263.8 L 976.6 263.8 Z M 976.6 245.8 " transform="matrix(1.25,0,0,1.25,-920,-228.75)"/>
<path style=" stroke:none;fill-rule:nonzero;fill:rgb(0%,0%,0%);fill-opacity:1;" d="M 312.503906 92.875 L 312.503906 90.941406 L 309.007812 90.941406 L 309.007812 90.042969 L 312.679688 84.828125 L 313.5 84.828125 L 313.5 90.042969 L 314.59375 90.042969 L 314.59375 90.941406 L 313.5 90.941406 L 313.5 92.875 Z M 312.503906 90.042969 L 312.503906 86.410156 L 309.984375 90.042969 Z M 312.503906 90.042969 "/>
<path style="fill-rule:nonzero;fill:rgb(100%,100%,100%);fill-opacity:1;stroke-width:1;stroke-linecap:round;stroke-linejoin:round;stroke:rgb(0%,0%,0%);stroke-opacity:1;stroke-miterlimit:10;" d="M 1012.6 227.8 L 1030.6 227.8 L 1030.6 245.8 L 1012.6 245.8 Z M 1012.6 227.8 " transform="matrix(1.25,0,0,1.25,-920,-228.75)"/>
<path style="fill-rule:nonzero;fill:rgb(100%,100%,100%);fill-opacity:1;stroke-width:1;stroke-linecap:round;stroke-linejoin:round;stroke:rgb(0%,0%,0%);stroke-opacity:1;stroke-miterlimit:10;" d="M 976.6 227.8 L 994.6 227.8 L 994.6 245.8 L 976.6 245.8 Z M 976.6 227.8 " transform="matrix(1.25,0,0,1.25,-920,-228.75)"/>
<path style=" stroke:none;fill-rule:nonzero;fill:rgb(0%,0%,0%);fill-opacity:1;" d="M 309.339844 66.410156 C 309.339844 65.460938 309.4375 64.691406 309.632812 64.105469 C 309.828125 63.519531 310.113281 63.070312 310.492188 62.757812 C 310.882812 62.445312 311.371094 62.289062 311.957031 62.289062 C 312.398438 62.289062 312.78125 62.382812 313.109375 62.5625 C 313.433594 62.734375 313.699219 62.984375 313.910156 63.304688 C 314.117188 63.632812 314.28125 64.027344 314.398438 64.496094 C 314.527344 64.964844 314.59375 65.605469 314.59375 66.410156 C 314.59375 67.347656 314.496094 68.109375 314.300781 68.695312 C 314.105469 69.273438 313.8125 69.71875 313.421875 70.042969 C 313.042969 70.355469 312.554688 70.511719 311.957031 70.511719 C 311.1875 70.511719 310.582031 70.234375 310.140625 69.671875 C 309.605469 69.007812 309.339844 67.921875 309.339844 66.410156 Z M 310.355469 66.410156 C 310.355469 67.726562 310.503906 68.609375 310.804688 69.046875 C 311.117188 69.476562 311.5 69.691406 311.957031 69.691406 C 312.410156 69.691406 312.796875 69.476562 313.109375 69.046875 C 313.421875 68.609375 313.578125 67.726562 313.578125 66.410156 C 313.578125 65.082031 313.421875 64.203125 313.109375 63.773438 C 312.796875 63.335938 312.410156 63.109375 311.957031 63.109375 C 311.5 63.109375 311.136719 63.300781 310.863281 63.675781 C 310.523438 64.171875 310.355469 65.082031 310.355469 66.410156 Z M 310.355469 66.410156 "/>
<path style="fill-rule:nonzero;fill:rgb(100%,100%,100%);fill-opacity:1;stroke-width:1;stroke-linecap:round;stroke-linejoin:round;stroke:rgb(0%,0%,0%);stroke-opacity:1;stroke-miterlimit:10;" d="M 1012.6 245.8 L 1030.6 245.8 L 1030.6 263.8 L 1012.6 263.8 Z M 1012.6 245.8 " transform="matrix(1.25,0,0,1.25,-920,-228.75)"/>
<path style="fill-rule:nonzero;fill:rgb(100%,100%,100%);fill-opacity:1;stroke-width:1;stroke-linecap:round;stroke-linejoin:round;stroke:rgb(0%,0%,0%);stroke-opacity:1;stroke-miterlimit:10;" d="M 1012.6 209.8 L 1030.6 209.8 L 1030.6 227.8 L 1012.6 227.8 Z M 1012.6 209.8 " transform="matrix(1.25,0,0,1.25,-920,-228.75)"/>
<path style="fill-rule:nonzero;fill:rgb(100%,100%,100%);fill-opacity:1;stroke-width:1;stroke-linecap:round;stroke-linejoin:round;stroke:rgb(0%,0%,0%);stroke-opacity:1;stroke-miterlimit:10;" d="M 976.6 209.8 L 994.6 209.8 L 994.6 227.8 L 976.6 227.8 Z M 976.6 209.8 " transform="matrix(1.25,0,0,1.25,-920,-228.75)"/>
<path style="fill-rule:nonzero;fill:rgb(40%,74.901961%,100%);fill-opacity:1;stroke-width:1;stroke-linecap:round;stroke-linejoin:round;stroke:rgb(0%,0%,0%);stroke-opacity:1;stroke-miterlimit:10;" d="M 1063.35625 246.465625 L 1081.35625 246.465625 L 1081.35625 264.465625 L 1063.35625 264.465625 Z M 1063.35625 246.465625 " transform="matrix(1.25,0,0,1.25,-920,-228.75)"/>
<path style=" stroke:none;fill-rule:nonzero;fill:rgb(0%,0%,0%);fill-opacity:1;" d="M 422.921875 87.632812 L 421.925781 87.710938 C 421.847656 87.320312 421.71875 87.039062 421.554688 86.851562 C 421.289062 86.578125 420.96875 86.441406 420.578125 86.441406 C 420.25 86.441406 419.972656 86.53125 419.738281 86.695312 C 419.425781 86.929688 419.175781 87.261719 418.996094 87.691406 C 418.824219 88.121094 418.730469 88.742188 418.722656 89.546875 C 418.957031 89.195312 419.238281 88.9375 419.582031 88.765625 C 419.933594 88.585938 420.292969 88.492188 420.675781 88.492188 C 421.339844 88.492188 421.894531 88.738281 422.355469 89.214844 C 422.824219 89.699219 423.058594 90.324219 423.058594 91.089844 C 423.058594 91.597656 422.945312 92.078125 422.726562 92.515625 C 422.5 92.945312 422.203125 93.277344 421.828125 93.511719 C 421.445312 93.734375 421.015625 93.84375 420.539062 93.84375 C 419.71875 93.84375 419.042969 93.546875 418.527344 92.945312 C 418.003906 92.335938 417.746094 91.335938 417.746094 89.9375 C 417.746094 88.390625 418.027344 87.257812 418.605469 86.539062 C 419.097656 85.929688 419.777344 85.621094 420.636719 85.621094 C 421.261719 85.621094 421.773438 85.808594 422.179688 86.167969 C 422.578125 86.519531 422.828125 87.007812 422.921875 87.632812 Z M 418.878906 91.089844 C 418.878906 91.441406 418.945312 91.773438 419.09375 92.085938 C 419.234375 92.390625 419.433594 92.625 419.699219 92.789062 C 419.957031 92.945312 420.230469 93.023438 420.519531 93.023438 C 420.933594 93.023438 421.289062 92.863281 421.59375 92.535156 C 421.890625 92.199219 422.042969 91.734375 422.042969 91.148438 C 422.042969 90.59375 421.890625 90.152344 421.59375 89.839844 C 421.304688 89.519531 420.933594 89.351562 420.480469 89.351562 C 420.035156 89.351562 419.660156 89.519531 419.347656 89.839844 C 419.035156 90.152344 418.878906 90.574219 418.878906 91.089844 Z M 418.878906 91.089844 "/>
<path style="fill-rule:nonzero;fill:rgb(100%,100%,100%);fill-opacity:1;stroke-width:1;stroke-linecap:round;stroke-linejoin:round;stroke:rgb(0%,0%,0%);stroke-opacity:1;stroke-miterlimit:10;" d="M 1063.35625 210.465625 L 1081.35625 210.465625 L 1081.35625 228.465625 L 1063.35625 228.465625 Z M 1063.35625 210.465625 " transform="matrix(1.25,0,0,1.25,-920,-228.75)"/>
<path style="fill-rule:nonzero;fill:rgb(40%,74.901961%,100%);fill-opacity:1;stroke-width:1;stroke-linecap:round;stroke-linejoin:round;stroke:rgb(0%,0%,0%);stroke-opacity:1;stroke-miterlimit:10;" d="M 1063.35625 228.465625 L 1081.35625 228.465625 L 1081.35625 246.465625 L 1063.35625 246.465625 Z M 1063.35625 228.465625 " transform="matrix(1.25,0,0,1.25,-920,-228.75)"/>
<path style=" stroke:none;fill-rule:nonzero;fill:rgb(0%,0%,0%);fill-opacity:1;" d="M 417.785156 67.242188 C 417.785156 66.296875 417.882812 65.523438 418.078125 64.9375 C 418.273438 64.351562 418.554688 63.902344 418.9375 63.589844 C 419.328125 63.277344 419.816406 63.121094 420.402344 63.121094 C 420.839844 63.121094 421.226562 63.214844 421.554688 63.394531 C 421.875 63.566406 422.144531 63.816406 422.355469 64.136719 C 422.558594 64.464844 422.726562 64.859375 422.84375 65.328125 C 422.96875 65.796875 423.039062 66.4375 423.039062 67.242188 C 423.039062 68.179688 422.941406 68.941406 422.746094 69.527344 C 422.550781 70.105469 422.257812 70.554688 421.867188 70.875 C 421.484375 71.1875 420.996094 71.34375 420.402344 71.34375 C 419.628906 71.34375 419.023438 71.066406 418.585938 70.503906 C 418.046875 69.839844 417.785156 68.757812 417.785156 67.242188 Z M 418.800781 67.242188 C 418.800781 68.5625 418.945312 69.441406 419.25 69.878906 C 419.5625 70.308594 419.941406 70.523438 420.402344 70.523438 C 420.855469 70.523438 421.242188 70.308594 421.554688 69.878906 C 421.867188 69.441406 422.023438 68.5625 422.023438 67.242188 C 422.023438 65.914062 421.867188 65.035156 421.554688 64.605469 C 421.242188 64.167969 420.855469 63.941406 420.402344 63.941406 C 419.941406 63.941406 419.582031 64.132812 419.308594 64.507812 C 418.964844 65.007812 418.800781 65.914062 418.800781 67.242188 Z M 418.800781 67.242188 "/>
<path style="fill-rule:nonzero;fill:rgb(100%,100%,100%);fill-opacity:1;stroke-width:1;stroke-linecap:round;stroke-linejoin:round;stroke:rgb(0%,0%,0%);stroke-opacity:1;stroke-miterlimit:10;" d="M 1045.35625 246.465625 L 1063.35625 246.465625 L 1063.35625 264.465625 L 1045.35625 264.465625 Z M 1045.35625 246.465625 " transform="matrix(1.25,0,0,1.25,-920,-228.75)"/>
<path style="fill-rule:nonzero;fill:rgb(40%,74.901961%,100%);fill-opacity:1;stroke-width:1;stroke-linecap:round;stroke-linejoin:round;stroke:rgb(0%,0%,0%);stroke-opacity:1;stroke-miterlimit:10;" d="M 1081.35625 228.465625 L 1099.35625 228.465625 L 1099.35625 246.465625 L 1081.35625 246.465625 Z M 1081.35625 228.465625 " transform="matrix(1.25,0,0,1.25,-920,-228.75)"/>
<path style=" stroke:none;fill-rule:nonzero;fill:rgb(0%,0%,0%);fill-opacity:1;" d="M 440.285156 69.078125 L 441.28125 68.941406 C 441.398438 69.503906 441.582031 69.910156 441.847656 70.152344 C 442.121094 70.402344 442.457031 70.523438 442.863281 70.523438 C 443.316406 70.523438 443.703125 70.367188 444.015625 70.054688 C 444.335938 69.734375 444.503906 69.328125 444.503906 68.84375 C 444.503906 68.390625 444.351562 68.019531 444.054688 67.730469 C 443.765625 67.433594 443.394531 67.28125 442.941406 67.28125 C 442.746094 67.28125 442.511719 67.320312 442.238281 67.398438 L 442.355469 66.519531 C 442.417969 66.535156 442.472656 66.539062 442.511719 66.539062 C 442.925781 66.539062 443.300781 66.433594 443.644531 66.207031 C 443.980469 65.988281 444.152344 65.652344 444.152344 65.191406 C 444.152344 64.832031 444.023438 64.527344 443.78125 64.292969 C 443.53125 64.058594 443.214844 63.941406 442.824219 63.941406 C 442.441406 63.941406 442.125 64.070312 441.867188 64.3125 C 441.617188 64.546875 441.457031 64.910156 441.378906 65.386719 L 440.382812 65.210938 C 440.507812 64.546875 440.78125 64.035156 441.203125 63.667969 C 441.632812 63.308594 442.164062 63.121094 442.804688 63.121094 C 443.242188 63.121094 443.648438 63.21875 444.015625 63.414062 C 444.390625 63.601562 444.679688 63.855469 444.875 64.175781 C 445.070312 64.503906 445.167969 64.851562 445.167969 65.210938 C 445.167969 65.5625 445.070312 65.886719 444.875 66.167969 C 444.6875 66.457031 444.414062 66.6875 444.054688 66.851562 C 444.53125 66.960938 444.902344 67.183594 445.167969 67.535156 C 445.425781 67.878906 445.558594 68.308594 445.558594 68.824219 C 445.558594 69.527344 445.292969 70.128906 444.777344 70.621094 C 444.269531 71.105469 443.625 71.34375 442.84375 71.34375 C 442.140625 71.34375 441.554688 71.140625 441.085938 70.71875 C 440.617188 70.304688 440.347656 69.757812 440.285156 69.078125 Z M 440.285156 69.078125 "/>
<path style="fill-rule:nonzero;fill:rgb(100%,100%,100%);fill-opacity:1;stroke-width:1;stroke-linecap:round;stroke-linejoin:round;stroke:rgb(0%,0%,0%);stroke-opacity:1;stroke-miterlimit:10;" d="M 1045.35625 228.465625 L 1063.35625 228.465625 L 1063.35625 246.465625 L 1045.35625 246.465625 Z M 1045.35625 228.465625 " transform="matrix(1.25,0,0,1.25,-920,-228.75)"/>
<path style="fill-rule:nonzero;fill:rgb(40%,74.901961%,100%);fill-opacity:1;stroke-width:1;stroke-linecap:round;stroke-linejoin:round;stroke:rgb(0%,0%,0%);stroke-opacity:1;stroke-miterlimit:10;" d="M 1081.35625 246.465625 L 1099.35625 246.465625 L 1099.35625 264.465625 L 1081.35625 264.465625 Z M 1081.35625 246.465625 " transform="matrix(1.25,0,0,1.25,-920,-228.75)"/>
<path style=" stroke:none;fill-rule:nonzero;fill:rgb(0%,0%,0%);fill-opacity:1;" d="M 440.441406 91.851562 L 441.378906 91.753906 C 441.457031 92.199219 441.601562 92.527344 441.828125 92.730469 C 442.0625 92.925781 442.359375 93.023438 442.726562 93.023438 C 443.023438 93.023438 443.28125 92.960938 443.507812 92.828125 C 443.742188 92.6875 443.925781 92.496094 444.074219 92.261719 C 444.230469 92.027344 444.351562 91.714844 444.445312 91.324219 C 444.546875 90.933594 444.601562 90.535156 444.601562 90.113281 C 444.601562 90.074219 444.589844 90.011719 444.582031 89.917969 C 444.386719 90.230469 444.117188 90.484375 443.78125 90.679688 C 443.4375 90.875 443.066406 90.972656 442.667969 90.972656 C 442.003906 90.972656 441.4375 90.734375 440.96875 90.25 C 440.507812 89.773438 440.285156 89.132812 440.285156 88.335938 C 440.285156 87.515625 440.523438 86.863281 441.007812 86.363281 C 441.484375 85.871094 442.089844 85.621094 442.824219 85.621094 C 443.339844 85.621094 443.820312 85.769531 444.25 86.050781 C 444.679688 86.324219 445 86.726562 445.226562 87.242188 C 445.460938 87.765625 445.578125 88.523438 445.578125 89.507812 C 445.578125 90.539062 445.464844 91.359375 445.246094 91.96875 C 445.019531 92.585938 444.6875 93.054688 444.25 93.375 C 443.804688 93.6875 443.28125 93.84375 442.6875 93.84375 C 442.0625 93.84375 441.542969 93.667969 441.144531 93.316406 C 440.753906 92.964844 440.519531 92.476562 440.441406 91.851562 Z M 444.484375 88.296875 C 444.484375 87.726562 444.328125 87.277344 444.015625 86.949219 C 443.710938 86.613281 443.355469 86.441406 442.941406 86.441406 C 442.496094 86.441406 442.109375 86.628906 441.789062 86.988281 C 441.460938 87.339844 441.300781 87.804688 441.300781 88.375 C 441.300781 88.882812 441.445312 89.304688 441.75 89.625 C 442.0625 89.9375 442.441406 90.09375 442.902344 90.09375 C 443.371094 90.09375 443.746094 89.9375 444.035156 89.625 C 444.332031 89.304688 444.484375 88.859375 444.484375 88.296875 Z M 444.484375 88.296875 "/>
<path style="fill-rule:nonzero;fill:rgb(100%,100%,100%);fill-opacity:1;stroke-width:1;stroke-linecap:round;stroke-linejoin:round;stroke:rgb(0%,0%,0%);stroke-opacity:1;stroke-miterlimit:10;" d="M 1081.35625 210.465625 L 1099.35625 210.465625 L 1099.35625 228.465625 L 1081.35625 228.465625 Z M 1081.35625 210.465625 " transform="matrix(1.25,0,0,1.25,-920,-228.75)"/>
<path style="fill-rule:nonzero;fill:rgb(100%,100%,100%);fill-opacity:1;stroke-width:1;stroke-linecap:round;stroke-linejoin:round;stroke:rgb(0%,0%,0%);stroke-opacity:1;stroke-miterlimit:10;" d="M 1045.35625 210.465625 L 1063.35625 210.465625 L 1063.35625 228.465625 L 1045.35625 228.465625 Z M 1045.35625 210.465625 " transform="matrix(1.25,0,0,1.25,-920,-228.75)"/>
<path style="fill-rule:nonzero;fill:rgb(100%,100%,100%);fill-opacity:1;stroke-width:1;stroke-linecap:round;stroke-linejoin:round;stroke:rgb(0%,0%,0%);stroke-opacity:1;stroke-miterlimit:10;" d="M 1131.8 245.8 L 1149.8 245.8 L 1149.8 263.8 L 1131.8 263.8 Z M 1131.8 245.8 " transform="matrix(1.25,0,0,1.25,-920,-228.75)"/>
<path style=" stroke:none;fill-rule:nonzero;fill:rgb(0%,0%,0%);fill-opacity:1;" d="M 503.941406 92.875 L 502.945312 92.875 L 502.945312 86.566406 C 502.710938 86.800781 502.398438 87.035156 502.007812 87.269531 C 501.617188 87.492188 501.273438 87.65625 500.972656 87.757812 L 500.972656 86.800781 C 501.519531 86.554688 502 86.25 502.417969 85.882812 C 502.835938 85.507812 503.128906 85.140625 503.296875 84.789062 L 503.941406 84.789062 Z M 503.941406 92.875 "/>
<path style=" stroke:none;fill-rule:nonzero;fill:rgb(0%,0%,0%);fill-opacity:1;" d="M 511.664062 91.917969 L 511.664062 92.875 L 506.332031 92.875 C 506.332031 92.640625 506.371094 92.414062 506.449219 92.191406 C 506.59375 91.828125 506.8125 91.46875 507.113281 91.117188 C 507.414062 90.765625 507.84375 90.367188 508.402344 89.90625 C 509.273438 89.179688 509.859375 88.609375 510.160156 88.1875 C 510.472656 87.773438 510.628906 87.375 510.628906 86.996094 C 510.628906 86.605469 510.484375 86.28125 510.199219 86.019531 C 509.925781 85.746094 509.566406 85.609375 509.125 85.609375 C 508.644531 85.609375 508.257812 85.757812 507.972656 86.039062 C 507.6875 86.328125 507.542969 86.722656 507.542969 87.230469 L 506.527344 87.113281 C 506.59375 86.359375 506.851562 85.785156 507.308594 85.394531 C 507.765625 84.992188 508.375 84.789062 509.144531 84.789062 C 509.914062 84.789062 510.519531 85.003906 510.960938 85.433594 C 511.417969 85.863281 511.644531 86.390625 511.644531 87.015625 C 511.644531 87.34375 511.578125 87.660156 511.449219 87.972656 C 511.320312 88.285156 511.097656 88.617188 510.785156 88.96875 C 510.484375 89.3125 509.984375 89.78125 509.28125 90.375 C 508.683594 90.875 508.296875 91.210938 508.128906 91.390625 C 507.960938 91.578125 507.824219 91.75 507.71875 91.917969 Z M 511.664062 91.917969 "/>
<path style="fill-rule:nonzero;fill:rgb(100%,100%,100%);fill-opacity:1;stroke-width:1;stroke-linecap:round;stroke-linejoin:round;stroke:rgb(0%,0%,0%);stroke-opacity:1;stroke-miterlimit:10;" d="M 1131.8 209.8 L 1149.8 209.8 L 1149.8 227.8 L 1131.8 227.8 Z M 1131.8 209.8 " transform="matrix(1.25,0,0,1.25,-920,-228.75)"/>
<path style=" stroke:none;fill-rule:nonzero;fill:rgb(0%,0%,0%);fill-opacity:1;" d="M 503.339844 43.910156 C 503.339844 42.960938 503.4375 42.191406 503.632812 41.605469 C 503.828125 41.019531 504.113281 40.570312 504.492188 40.257812 C 504.882812 39.945312 505.371094 39.789062 505.957031 39.789062 C 506.398438 39.789062 506.78125 39.882812 507.109375 40.0625 C 507.433594 40.234375 507.699219 40.484375 507.910156 40.804688 C 508.117188 41.132812 508.28125 41.527344 508.398438 41.996094 C 508.527344 42.464844 508.59375 43.105469 508.59375 43.910156 C 508.59375 44.847656 508.496094 45.609375 508.300781 46.195312 C 508.105469 46.773438 507.8125 47.21875 507.421875 47.542969 C 507.042969 47.855469 506.554688 48.011719 505.957031 48.011719 C 505.1875 48.011719 504.582031 47.734375 504.140625 47.171875 C 503.605469 46.507812 503.339844 45.421875 503.339844 43.910156 Z M 504.355469 43.910156 C 504.355469 45.226562 504.503906 46.109375 504.804688 46.546875 C 505.117188 46.976562 505.5 47.191406 505.957031 47.191406 C 506.410156 47.191406 506.796875 46.976562 507.109375 46.546875 C 507.421875 46.109375 507.578125 45.226562 507.578125 43.910156 C 507.578125 42.582031 507.421875 41.703125 507.109375 41.273438 C 506.796875 40.835938 506.410156 40.609375 505.957031 40.609375 C 505.5 40.609375 505.136719 40.800781 504.863281 41.175781 C 504.523438 41.671875 504.355469 42.582031 504.355469 43.910156 Z M 504.355469 43.910156 "/>
<path style="fill-rule:nonzero;fill:rgb(100%,100%,100%);fill-opacity:1;stroke-width:1;stroke-linecap:round;stroke-linejoin:round;stroke:rgb(0%,0%,0%);stroke-opacity:1;stroke-miterlimit:10;" d="M 1131.8 227.8 L 1149.8 227.8 L 1149.8 245.8 L 1131.8 245.8 Z M 1131.8 227.8 " transform="matrix(1.25,0,0,1.25,-920,-228.75)"/>
<path style=" stroke:none;fill-rule:nonzero;fill:rgb(0%,0%,0%);fill-opacity:1;" d="M 506.503906 70.375 L 506.503906 68.441406 L 503.007812 68.441406 L 503.007812 67.542969 L 506.679688 62.328125 L 507.5 62.328125 L 507.5 67.542969 L 508.59375 67.542969 L 508.59375 68.441406 L 507.5 68.441406 L 507.5 70.375 Z M 506.503906 67.542969 L 506.503906 63.910156 L 503.984375 67.542969 Z M 506.503906 67.542969 "/>
<path style="fill-rule:nonzero;fill:rgb(100%,100%,100%);fill-opacity:1;stroke-width:1;stroke-linecap:round;stroke-linejoin:round;stroke:rgb(0%,0%,0%);stroke-opacity:1;stroke-miterlimit:10;" d="M 1113.8 245.8 L 1131.8 245.8 L 1131.8 263.8 L 1113.8 263.8 Z M 1113.8 245.8 " transform="matrix(1.25,0,0,1.25,-920,-228.75)"/>
<path style=" stroke:none;fill-rule:nonzero;fill:rgb(0%,0%,0%);fill-opacity:1;" d="M 484.003906 92.875 L 484.003906 90.941406 L 480.507812 90.941406 L 480.507812 90.042969 L 484.179688 84.828125 L 485 84.828125 L 485 90.042969 L 486.09375 90.042969 L 486.09375 90.941406 L 485 90.941406 L 485 92.875 Z M 484.003906 90.042969 L 484.003906 86.410156 L 481.484375 90.042969 Z M 484.003906 90.042969 "/>
<path style="fill-rule:nonzero;fill:rgb(100%,100%,100%);fill-opacity:1;stroke-width:1;stroke-linecap:round;stroke-linejoin:round;stroke:rgb(0%,0%,0%);stroke-opacity:1;stroke-miterlimit:10;" d="M 1149.8 227.8 L 1167.8 227.8 L 1167.8 245.8 L 1149.8 245.8 Z M 1149.8 227.8 " transform="matrix(1.25,0,0,1.25,-920,-228.75)"/>
<path style=" stroke:none;fill-rule:nonzero;fill:rgb(0%,0%,0%);fill-opacity:1;" d="M 530.976562 64.300781 L 529.980469 64.378906 C 529.902344 63.988281 529.777344 63.703125 529.609375 63.519531 C 529.347656 63.246094 529.023438 63.109375 528.632812 63.109375 C 528.304688 63.109375 528.027344 63.195312 527.792969 63.363281 C 527.480469 63.597656 527.230469 63.929688 527.050781 64.359375 C 526.878906 64.789062 526.789062 65.410156 526.777344 66.214844 C 527.011719 65.863281 527.296875 65.605469 527.636719 65.433594 C 527.988281 65.253906 528.351562 65.160156 528.730469 65.160156 C 529.394531 65.160156 529.953125 65.40625 530.410156 65.882812 C 530.878906 66.367188 531.113281 66.992188 531.113281 67.757812 C 531.113281 68.265625 531 68.742188 530.78125 69.183594 C 530.558594 69.613281 530.257812 69.945312 529.882812 70.179688 C 529.503906 70.398438 529.074219 70.511719 528.59375 70.511719 C 527.773438 70.511719 527.101562 70.214844 526.582031 69.613281 C 526.058594 69.003906 525.800781 68 525.800781 66.605469 C 525.800781 65.058594 526.085938 63.925781 526.660156 63.207031 C 527.152344 62.597656 527.832031 62.289062 528.691406 62.289062 C 529.316406 62.289062 529.828125 62.476562 530.234375 62.835938 C 530.636719 63.1875 530.882812 63.675781 530.976562 64.300781 Z M 526.933594 67.757812 C 526.933594 68.109375 527.003906 68.441406 527.148438 68.753906 C 527.289062 69.054688 527.492188 69.289062 527.753906 69.457031 C 528.011719 69.613281 528.285156 69.691406 528.574219 69.691406 C 528.988281 69.691406 529.347656 69.53125 529.648438 69.203125 C 529.945312 68.867188 530.097656 68.402344 530.097656 67.816406 C 530.097656 67.257812 529.945312 66.820312 529.648438 66.507812 C 529.359375 66.1875 528.988281 66.019531 528.535156 66.019531 C 528.089844 66.019531 527.714844 66.1875 527.402344 66.507812 C 527.089844 66.820312 526.933594 67.242188 526.933594 67.757812 Z M 526.933594 67.757812 "/>
<path style="fill-rule:nonzero;fill:rgb(100%,100%,100%);fill-opacity:1;stroke-width:1;stroke-linecap:round;stroke-linejoin:round;stroke:rgb(0%,0%,0%);stroke-opacity:1;stroke-miterlimit:10;" d="M 1113.8 227.8 L 1131.8 227.8 L 1131.8 245.8 L 1113.8 245.8 Z M 1113.8 227.8 " transform="matrix(1.25,0,0,1.25,-920,-228.75)"/>
<path style=" stroke:none;fill-rule:nonzero;fill:rgb(0%,0%,0%);fill-opacity:1;" d="M 480.839844 66.410156 C 480.839844 65.460938 480.9375 64.691406 481.132812 64.105469 C 481.328125 63.519531 481.613281 63.070312 481.992188 62.757812 C 482.382812 62.445312 482.871094 62.289062 483.457031 62.289062 C 483.898438 62.289062 484.28125 62.382812 484.609375 62.5625 C 484.933594 62.734375 485.199219 62.984375 485.410156 63.304688 C 485.617188 63.632812 485.78125 64.027344 485.898438 64.496094 C 486.027344 64.964844 486.09375 65.605469 486.09375 66.410156 C 486.09375 67.347656 485.996094 68.109375 485.800781 68.695312 C 485.605469 69.273438 485.3125 69.71875 484.921875 70.042969 C 484.542969 70.355469 484.054688 70.511719 483.457031 70.511719 C 482.6875 70.511719 482.082031 70.234375 481.640625 69.671875 C 481.105469 69.007812 480.839844 67.921875 480.839844 66.410156 Z M 481.855469 66.410156 C 481.855469 67.726562 482.003906 68.609375 482.304688 69.046875 C 482.617188 69.476562 483 69.691406 483.457031 69.691406 C 483.910156 69.691406 484.296875 69.476562 484.609375 69.046875 C 484.921875 68.609375 485.078125 67.726562 485.078125 66.410156 C 485.078125 65.082031 484.921875 64.203125 484.609375 63.773438 C 484.296875 63.335938 483.910156 63.109375 483.457031 63.109375 C 483 63.109375 482.636719 63.300781 482.363281 63.675781 C 482.023438 64.171875 481.855469 65.082031 481.855469 66.410156 Z M 481.855469 66.410156 "/>
<path style="fill-rule:nonzero;fill:rgb(100%,100%,100%);fill-opacity:1;stroke-width:1;stroke-linecap:round;stroke-linejoin:round;stroke:rgb(0%,0%,0%);stroke-opacity:1;stroke-miterlimit:10;" d="M 1149.8 245.8 L 1167.8 245.8 L 1167.8 263.8 L 1149.8 263.8 Z M 1149.8 245.8 " transform="matrix(1.25,0,0,1.25,-920,-228.75)"/>
<path style=" stroke:none;fill-rule:nonzero;fill:rgb(0%,0%,0%);fill-opacity:1;" d="M 525.996094 91.019531 L 526.933594 90.921875 C 527.011719 91.367188 527.160156 91.695312 527.382812 91.898438 C 527.617188 92.09375 527.914062 92.191406 528.28125 92.191406 C 528.578125 92.191406 528.839844 92.128906 529.0625 91.996094 C 529.296875 91.855469 529.484375 91.664062 529.628906 91.429688 C 529.785156 91.195312 529.90625 90.882812 530 90.492188 C 530.101562 90.101562 530.15625 89.703125 530.15625 89.28125 C 530.15625 89.242188 530.148438 89.179688 530.136719 89.085938 C 529.941406 89.398438 529.671875 89.652344 529.335938 89.847656 C 528.996094 90.042969 528.625 90.140625 528.222656 90.140625 C 527.558594 90.140625 526.992188 89.902344 526.523438 89.417969 C 526.066406 88.9375 525.839844 88.300781 525.839844 87.503906 C 525.839844 86.683594 526.078125 86.03125 526.5625 85.53125 C 527.042969 85.039062 527.648438 84.789062 528.378906 84.789062 C 528.898438 84.789062 529.375 84.9375 529.804688 85.21875 C 530.234375 85.492188 530.558594 85.890625 530.78125 86.410156 C 531.015625 86.933594 531.132812 87.6875 531.132812 88.675781 C 531.132812 89.707031 531.019531 90.527344 530.800781 91.136719 C 530.578125 91.75 530.246094 92.21875 529.804688 92.542969 C 529.359375 92.855469 528.839844 93.011719 528.242188 93.011719 C 527.617188 93.011719 527.101562 92.835938 526.699219 92.484375 C 526.308594 92.132812 526.074219 91.644531 525.996094 91.019531 Z M 530.039062 87.464844 C 530.039062 86.894531 529.882812 86.445312 529.570312 86.117188 C 529.269531 85.78125 528.910156 85.609375 528.496094 85.609375 C 528.050781 85.609375 527.667969 85.796875 527.34375 86.15625 C 527.015625 86.507812 526.855469 86.972656 526.855469 87.542969 C 526.855469 88.050781 527.003906 88.46875 527.304688 88.792969 C 527.617188 89.105469 528 89.261719 528.457031 89.261719 C 528.925781 89.261719 529.300781 89.105469 529.589844 88.792969 C 529.886719 88.46875 530.039062 88.027344 530.039062 87.464844 Z M 530.039062 87.464844 "/>
<path style="fill-rule:nonzero;fill:rgb(100%,100%,100%);fill-opacity:1;stroke-width:1;stroke-linecap:round;stroke-linejoin:round;stroke:rgb(0%,0%,0%);stroke-opacity:1;stroke-miterlimit:10;" d="M 1149.8 209.8 L 1167.8 209.8 L 1167.8 227.8 L 1149.8 227.8 Z M 1149.8 209.8 " transform="matrix(1.25,0,0,1.25,-920,-228.75)"/>
<path style=" stroke:none;fill-rule:nonzero;fill:rgb(0%,0%,0%);fill-opacity:1;" d="M 529.570312 47.875 L 528.574219 47.875 L 528.574219 41.566406 C 528.339844 41.800781 528.027344 42.035156 527.636719 42.269531 C 527.246094 42.492188 526.898438 42.65625 526.601562 42.757812 L 526.601562 41.800781 C 527.148438 41.554688 527.628906 41.25 528.046875 40.882812 C 528.460938 40.507812 528.753906 40.140625 528.925781 39.789062 L 529.570312 39.789062 Z M 529.570312 47.875 "/>
<path style="fill-rule:nonzero;fill:rgb(100%,100%,100%);fill-opacity:1;stroke-width:1;stroke-linecap:round;stroke-linejoin:round;stroke:rgb(0%,0%,0%);stroke-opacity:1;stroke-miterlimit:10;" d="M 1113.8 209.8 L 1131.8 209.8 L 1131.8 227.8 L 1113.8 227.8 Z M 1113.8 209.8 " transform="matrix(1.25,0,0,1.25,-920,-228.75)"/>
<path style=" stroke:none;fill-rule:nonzero;fill:rgb(0%,0%,0%);fill-opacity:1;" d="M 480.839844 43.910156 C 480.839844 42.960938 480.9375 42.191406 481.132812 41.605469 C 481.328125 41.019531 481.613281 40.570312 481.992188 40.257812 C 482.382812 39.945312 482.871094 39.789062 483.457031 39.789062 C 483.898438 39.789062 484.28125 39.882812 484.609375 40.0625 C 484.933594 40.234375 485.199219 40.484375 485.410156 40.804688 C 485.617188 41.132812 485.78125 41.527344 485.898438 41.996094 C 486.027344 42.464844 486.09375 43.105469 486.09375 43.910156 C 486.09375 44.847656 485.996094 45.609375 485.800781 46.195312 C 485.605469 46.773438 485.3125 47.21875 484.921875 47.542969 C 484.542969 47.855469 484.054688 48.011719 483.457031 48.011719 C 482.6875 48.011719 482.082031 47.734375 481.640625 47.171875 C 481.105469 46.507812 480.839844 45.421875 480.839844 43.910156 Z M 481.855469 43.910156 C 481.855469 45.226562 482.003906 46.109375 482.304688 46.546875 C 482.617188 46.976562 483 47.191406 483.457031 47.191406 C 483.910156 47.191406 484.296875 46.976562 484.609375 46.546875 C 484.921875 46.109375 485.078125 45.226562 485.078125 43.910156 C 485.078125 42.582031 484.921875 41.703125 484.609375 41.273438 C 484.296875 40.835938 483.910156 40.609375 483.457031 40.609375 C 483 40.609375 482.636719 40.800781 482.363281 41.175781 C 482.023438 41.671875 481.855469 42.582031 481.855469 43.910156 Z M 481.855469 43.910156 "/>
<path style=" stroke:none;fill-rule:nonzero;fill:rgb(0%,0%,0%);fill-opacity:1;" d="M 205.203125 69.898438 L 205.203125 67.691406 L 203.015625 67.691406 L 203.015625 66.773438 L 205.203125 66.773438 L 205.203125 64.585938 L 206.140625 64.585938 L 206.140625 66.773438 L 208.328125 66.773438 L 208.328125 67.691406 L 206.140625 67.691406 L 206.140625 69.898438 Z M 205.203125 69.898438 "/>
<path style=" stroke:none;fill-rule:nonzero;fill:rgb(0%,0%,0%);fill-opacity:1;" d="M 291.152344 69.066406 L 291.152344 66.859375 L 288.964844 66.859375 L 288.964844 65.941406 L 291.152344 65.941406 L 291.152344 63.753906 L 292.089844 63.753906 L 292.089844 65.941406 L 294.277344 65.941406 L 294.277344 66.859375 L 292.089844 66.859375 L 292.089844 69.066406 Z M 291.152344 69.066406 "/>
<path style=" stroke:none;fill-rule:nonzero;fill:rgb(0%,0%,0%);fill-opacity:1;" d="M 376.6875 69.066406 L 376.6875 66.859375 L 374.5 66.859375 L 374.5 65.941406 L 376.6875 65.941406 L 376.6875 63.753906 L 377.625 63.753906 L 377.625 65.941406 L 379.8125 65.941406 L 379.8125 66.859375 L 377.625 66.859375 L 377.625 69.066406 Z M 376.6875 69.066406 "/>
<path style=" stroke:none;fill-rule:nonzero;fill:rgb(0%,0%,0%);fill-opacity:1;" d="M 466.1875 65.335938 L 460.875 65.335938 L 460.875 64.398438 L 466.1875 64.398438 Z M 466.1875 67.777344 L 460.875 67.777344 L 460.875 66.839844 L 466.1875 66.839844 Z M 466.1875 67.777344 "/>
</g>
</svg>
