<?xml version="1.0" encoding="UTF-8" standalone="no"?>
<!-- Created with Inkscape (http://www.inkscape.org/) -->
<svg
   xmlns:dc="http://purl.org/dc/elements/1.1/"
   xmlns:cc="http://creativecommons.org/ns#"
   xmlns:rdf="http://www.w3.org/1999/02/22-rdf-syntax-ns#"
   xmlns:svg="http://www.w3.org/2000/svg"
   xmlns="http://www.w3.org/2000/svg"
   xmlns:sodipodi="http://sodipodi.sourceforge.net/DTD/sodipodi-0.dtd"
   xmlns:inkscape="http://www.inkscape.org/namespaces/inkscape"
   id="svg2"
   sodipodi:version="0.32"
   inkscape:version="0.46"
   width="354.33069"
   height="265.74802"
   xml:space="preserve"
   sodipodi:docname="ex_marge.svg"
   version="1.0"
   inkscape:output_extension="org.inkscape.output.svg.inkscape"><metadata
     id="metadata7"><rdf:RDF><cc:Work
         rdf:about=""><dc:format>image/svg+xml</dc:format><dc:type
           rdf:resource="http://purl.org/dc/dcmitype/StillImage" /></cc:Work></rdf:RDF></metadata><defs
     id="defs5"><marker
       inkscape:stockid="Arrow2Mstart"
       orient="auto"
       refY="0.0"
       refX="0.0"
       id="Arrow2Mstart"
       style="overflow:visible"><path
         id="path3949"
         style="font-size:12.0;fill-rule:evenodd;stroke-width:0.62500000;stroke-linejoin:round"
         d="M 8.7185878,4.0337352 L -2.2072895,0.016013256 L 8.7185884,-4.0017078 C 6.9730900,-1.6296469 6.9831476,1.6157441 8.7185878,4.0337352 z "
         transform="scale(0.6) translate(0,0)" /></marker><marker
       inkscape:stockid="Arrow2Mend"
       orient="auto"
       refY="0.0"
       refX="0.0"
       id="Arrow2Mend"
       style="overflow:visible;"><path
         id="path3952"
         style="font-size:12.0;fill-rule:evenodd;stroke-width:0.62500000;stroke-linejoin:round;"
         d="M 8.7185878,4.0337352 L -2.2072895,0.016013256 L 8.7185884,-4.0017078 C 6.9730900,-1.6296469 6.9831476,1.6157441 8.7185878,4.0337352 z "
         transform="scale(0.6) rotate(180) translate(0,0)" /></marker><inkscape:perspective
       sodipodi:type="inkscape:persp3d"
       inkscape:vp_x="0 : 526.18109 : 1"
       inkscape:vp_y="0 : 1000 : 0"
       inkscape:vp_z="744.09448 : 526.18109 : 1"
       inkscape:persp3d-origin="372.04724 : 350.78739 : 1"
       id="perspective9" /><clipPath
       clipPathUnits="userSpaceOnUse"
       id="clipPath19"><path
         d="M 3.33203,2.5 L 4760.002,2.5 L 4760.002,3740 L 3.33203,3740 L 3.33203,2.5 z"
         id="path21" /></clipPath><clipPath
       clipPathUnits="userSpaceOnUse"
       id="clipPath173"><path
         d="M 3566.67,3020.83 L 3566.67,2898.33 L 3689.17,2898.33 L 3689.17,3020.83 L 3566.67,3020.83 z"
         id="path175" /></clipPath><clipPath
       clipPathUnits="userSpaceOnUse"
       id="clipPath183"><path
         d="M 2953.33,3158.33 L 2953.33,3035.83 L 3075.83,3035.83 L 3075.83,3158.33 L 2953.33,3158.33 z"
         id="path185" /></clipPath><clipPath
       clipPathUnits="userSpaceOnUse"
       id="clipPath193"><path
         d="M 2862.5,3269.17 L 2862.5,3146.67 L 2985,3146.67 L 2985,3269.17 L 2862.5,3269.17 z"
         id="path195" /></clipPath><clipPath
       clipPathUnits="userSpaceOnUse"
       id="clipPath203"><path
         d="M 2923.33,1756.67 L 2923.33,1634.17 L 3045.83,1634.17 L 3045.83,1756.67 L 2923.33,1756.67 z"
         id="path205" /></clipPath><clipPath
       clipPathUnits="userSpaceOnUse"
       id="clipPath213"><path
         d="M 2045.83,2699.17 L 2045.83,2576.67 L 2168.33,2576.67 L 2168.33,2699.17 L 2045.83,2699.17 z"
         id="path215" /></clipPath><clipPath
       clipPathUnits="userSpaceOnUse"
       id="clipPath223"><path
         d="M 2969.17,2719.17 L 2969.17,2596.67 L 3091.67,2596.67 L 3091.67,2719.17 L 2969.17,2719.17 z"
         id="path225" /></clipPath><clipPath
       clipPathUnits="userSpaceOnUse"
       id="clipPath233"><path
         d="M 3231.67,1744.17 L 3231.67,1621.67 L 3354.17,1621.67 L 3354.17,1744.17 L 3231.67,1744.17 z"
         id="path235" /></clipPath><clipPath
       clipPathUnits="userSpaceOnUse"
       id="clipPath243"><path
         d="M 3377.5,1952.5 L 3377.5,1830 L 3500,1830 L 3500,1952.5 L 3377.5,1952.5 z"
         id="path245" /></clipPath><clipPath
       clipPathUnits="userSpaceOnUse"
       id="clipPath253"><path
         d="M 4217.5,3380 L 4217.5,3257.5 L 4340,3257.5 L 4340,3380 L 4217.5,3380 z"
         id="path255" /></clipPath><clipPath
       clipPathUnits="userSpaceOnUse"
       id="clipPath263"><path
         d="M 2882.5,2430 L 2882.5,2307.5 L 3005,2307.5 L 3005,2430 L 2882.5,2430 z"
         id="path265" /></clipPath><clipPath
       clipPathUnits="userSpaceOnUse"
       id="clipPath273"><path
         d="M 535.832,968.332 L 535.832,845.832 L 658.332,845.832 L 658.332,968.332 L 535.832,968.332 z"
         id="path275" /></clipPath><clipPath
       clipPathUnits="userSpaceOnUse"
       id="clipPath285"><path
         d="M 1140,843.332 L 1140,720.832 L 1262.5,720.832 L 1262.5,843.332 L 1140,843.332 z"
         id="path287" /></clipPath><clipPath
       clipPathUnits="userSpaceOnUse"
       id="clipPath297"><path
         d="M 1100.83,1396.67 L 1100.83,1274.17 L 1223.33,1274.17 L 1223.33,1396.67 L 1100.83,1396.67 z"
         id="path299" /></clipPath><clipPath
       clipPathUnits="userSpaceOnUse"
       id="clipPath309"><path
         d="M 1541.67,235 L 1541.67,112.5 L 1664.17,112.5 L 1664.17,235 L 1541.67,235 z"
         id="path311" /></clipPath><clipPath
       clipPathUnits="userSpaceOnUse"
       id="clipPath321"><path
         d="M 1131.67,1135.83 L 1131.67,1013.33 L 1254.17,1013.33 L 1254.17,1135.83 L 1131.67,1135.83 z"
         id="path323" /></clipPath><clipPath
       clipPathUnits="userSpaceOnUse"
       id="clipPath333"><path
         d="M 672.5,1318.33 L 672.5,1195.83 L 795,1195.83 L 795,1318.33 L 672.5,1318.33 z"
         id="path335" /></clipPath><clipPath
       clipPathUnits="userSpaceOnUse"
       id="clipPath345"><path
         d="M 1053.33,1254.17 L 1053.33,1131.67 L 1175.83,1131.67 L 1175.83,1254.17 L 1053.33,1254.17 z"
         id="path347" /></clipPath><clipPath
       clipPathUnits="userSpaceOnUse"
       id="clipPath357"><path
         d="M 536.668,1194.17 L 536.668,1071.67 L 659.168,1071.67 L 659.168,1194.17 L 536.668,1194.17 z"
         id="path359" /></clipPath><clipPath
       clipPathUnits="userSpaceOnUse"
       id="clipPath369"><path
         d="M 904.168,984.168 L 904.168,861.668 L 1026.67,861.668 L 1026.67,984.168 L 904.168,984.168 z"
         id="path371" /></clipPath><clipPath
       clipPathUnits="userSpaceOnUse"
       id="clipPath381"><path
         d="M 894.168,1233.33 L 894.168,1110.83 L 1016.67,1110.83 L 1016.67,1233.33 L 894.168,1233.33 z"
         id="path383" /></clipPath></defs><sodipodi:namedview
     inkscape:window-height="725"
     inkscape:window-width="1279"
     inkscape:pageshadow="2"
     inkscape:pageopacity="0.0"
     guidetolerance="10.0"
     gridtolerance="10.0"
     objecttolerance="10.0"
     borderopacity="1.0"
     bordercolor="#666666"
     pagecolor="#ffffff"
     id="base"
     showgrid="false"
     units="mm"
     inkscape:zoom="1.8151261"
     inkscape:cx="78.750144"
     inkscape:cy="138.03812"
     inkscape:window-x="0"
     inkscape:window-y="25"
     inkscape:current-layer="g11" /><g
     id="g11"
     inkscape:groupmode="layer"
     inkscape:label="ex_marge"
     transform="matrix(1.25,0,0,-1.25,0,467.5)"><path
   id="path27"
   style="fill:none;stroke:#ffffff;stroke-width:0.5;stroke-linecap:butt;stroke-linejoin:round;stroke-miterlimit:10;stroke-dasharray:none;stroke-opacity:1"
   d="M 39.11306,184.40957 L 39.11306,352.30296 L 251.90007,352.30296 L 251.90007,184.40957 L 39.11306,184.40957" /><path
   id="path29"
   style="fill:none;stroke:#000000;stroke-width:0.50000000000000000;stroke-linecap:butt;stroke-linejoin:round;stroke-miterlimit:10;stroke-dasharray:none;stroke-opacity:1;marker-end:url(#Arrow2Mend)"
   d="M 39.11306,184.40957 L 251.90007,184.40957" /><path
   id="path31"
   style="fill:none;stroke:#000000;stroke-width:0.49889764;stroke-linecap:butt;stroke-linejoin:round;stroke-miterlimit:10;stroke-dasharray:none;stroke-opacity:1;marker-end:url(#Arrow2Mend)"
   d="M 39.11306,184.40957 L 39.11306,352.30296" /><path
   id="path33"
   style="fill:none;stroke:#000000;stroke-width:0.5;stroke-linecap:butt;stroke-linejoin:round;stroke-miterlimit:10;stroke-dasharray:none;stroke-opacity:1"
   d="M 39.11306,184.40957 L 39.11306,186.55493" /><path
   id="path89"
   style="fill:none;stroke:#000000;stroke-width:0.5;stroke-linecap:butt;stroke-linejoin:round;stroke-miterlimit:10;stroke-dasharray:none;stroke-opacity:1"
   d="M 39.11306,184.40957 L 41.218556,184.40957" /><g
   id="g3132"
   style="stroke:#005700;stroke-opacity:1"><path
     d="M 202.55699,319.60638 C 202.55699,318.81641 201.91672,318.17614 201.12676,318.17614 C 200.33679,318.17614 199.69652,318.81641 199.69652,319.60638 C 199.69652,320.39635 200.33679,321.03661 201.12676,321.03661 C 201.91672,321.03661 202.55699,320.39635 202.55699,319.60638"
     style="fill:none;stroke:#005700;stroke-width:0.50000000000000000;stroke-linecap:butt;stroke-linejoin:miter;stroke-miterlimit:10;stroke-dasharray:none;stroke-opacity:1"
     id="path177" /><path
     d="M 173.31681,326.16162 C 173.31681,325.37165 172.67606,324.73139 171.88657,324.73139 C 171.09661,324.73139 170.45634,325.37165 170.45634,326.16162 C 170.45634,326.95159 171.09661,327.59185 171.88657,327.59185 C 172.67606,327.59185 173.31681,326.95159 173.31681,326.16162"
     style="fill:none;stroke:#005700;stroke-width:0.50000000000000000;stroke-linecap:butt;stroke-linejoin:miter;stroke-miterlimit:10;stroke-dasharray:none;stroke-opacity:1"
     id="path187" /><path
     d="M 168.98606,331.44538 C 168.98606,330.65589 168.34579,330.01515 167.55582,330.01515 C 166.76633,330.01515 166.12559,330.65589 166.12559,331.44538 C 166.12559,332.23535 166.76633,332.87562 167.55582,332.87562 C 168.34579,332.87562 168.98606,332.23535 168.98606,331.44538"
     style="fill:none;stroke:#005700;stroke-width:0.50000000000000000;stroke-linecap:butt;stroke-linejoin:miter;stroke-miterlimit:10;stroke-dasharray:none;stroke-opacity:1"
     id="path197" /><path
     d="M 171.88657,259.33774 C 171.88657,258.54825 171.24583,257.9075 170.45634,257.9075 C 169.66637,257.9075 169.0261,258.54825 169.0261,259.33774 C 169.0261,260.1277 169.66637,260.76797 170.45634,260.76797 C 171.24583,260.76797 171.88657,260.1277 171.88657,259.33774"
     style="fill:none;stroke:#005700;stroke-width:0.50000000000000000;stroke-linecap:butt;stroke-linejoin:miter;stroke-miterlimit:10;stroke-dasharray:none;stroke-opacity:1"
     id="path207" /><path
     d="M 130.05222,304.27093 C 130.05222,303.48144 129.41147,302.8407 128.62198,302.8407 C 127.83202,302.8407 127.19175,303.48144 127.19175,304.27093 C 127.19175,305.0609 127.83202,305.70116 128.62198,305.70116 C 129.41147,305.70116 130.05222,305.0609 130.05222,304.27093"
     style="fill:none;stroke:#005700;stroke-width:0.50000000000000000;stroke-linecap:butt;stroke-linejoin:miter;stroke-miterlimit:10;stroke-dasharray:none;stroke-opacity:1"
     id="path217" /><path
     d="M 174.07149,305.22442 C 174.07149,304.43493 173.43122,303.79419 172.64126,303.79419 C 171.85129,303.79419 171.21102,304.43493 171.21102,305.22442 C 171.21102,306.01439 171.85129,306.65465 172.64126,306.65465 C 173.43122,306.65465 174.07149,306.01439 174.07149,305.22442"
     style="fill:none;stroke:#005700;stroke-width:0.50000000000000000;stroke-linecap:butt;stroke-linejoin:miter;stroke-miterlimit:10;stroke-dasharray:none;stroke-opacity:1"
     id="path227" /><path
     d="M 186.58604,258.74181 C 186.58604,257.95232 185.94577,257.31157 185.15581,257.31157 C 184.36584,257.31157 183.72557,257.95232 183.72557,258.74181 C 183.72557,259.53177 184.36584,260.17204 185.15581,260.17204 C 185.94577,260.17204 186.58604,259.53177 186.58604,258.74181"
     style="fill:none;stroke:#005700;stroke-width:0.50000000000000000;stroke-linecap:butt;stroke-linejoin:miter;stroke-miterlimit:10;stroke-dasharray:none;stroke-opacity:1"
     id="path237" /><path
     d="M 193.53841,268.67431 C 193.53841,267.88434 192.89814,267.24407 192.10818,267.24407 C 191.31869,267.24407 190.67794,267.88434 190.67794,268.67431 C 190.67794,269.4638 191.31869,270.10454 192.10818,270.10454 C 192.89814,270.10454 193.53841,269.4638 193.53841,268.67431"
     style="fill:none;stroke:#005700;stroke-width:0.50000000000000000;stroke-linecap:butt;stroke-linejoin:miter;stroke-miterlimit:10;stroke-dasharray:none;stroke-opacity:1"
     id="path247" /><path
     d="M 233.58497,336.72962 C 233.58497,335.93965 232.9447,335.29939 232.15474,335.29939 C 231.36525,335.29939 230.7245,335.93965 230.7245,336.72962 C 230.7245,337.51911 231.36525,338.15985 232.15474,338.15985 C 232.9447,338.15985 233.58497,337.51911 233.58497,336.72962"
     style="fill:none;stroke:#005700;stroke-width:0.50000000000000000;stroke-linecap:butt;stroke-linejoin:miter;stroke-miterlimit:10;stroke-dasharray:none;stroke-opacity:1"
     id="path257" /><path
     d="M 169.93955,291.43887 C 169.93955,290.6489 169.29928,290.00863 168.50931,290.00863 C 167.71982,290.00863 167.07908,290.6489 167.07908,291.43887 C 167.07908,292.22836 167.71982,292.8691 168.50931,292.8691 C 169.29928,292.8691 169.93955,292.22836 169.93955,291.43887"
     style="fill:none;stroke:#005700;stroke-width:0.50000000000000000;stroke-linecap:butt;stroke-linejoin:miter;stroke-miterlimit:10;stroke-dasharray:none;stroke-opacity:1"
     id="path267" /></g><path
   id="path277"
   style="fill:none;stroke:#0000ff;stroke-width:0.5;stroke-linecap:butt;stroke-linejoin:miter;stroke-miterlimit:10;stroke-dasharray:none;stroke-opacity:1"
   d="M 55.640085,222.74767 L 57.626585,220.76136" /><path
   id="path279"
   style="fill:none;stroke:#0000ff;stroke-width:0.5;stroke-linecap:butt;stroke-linejoin:miter;stroke-miterlimit:10;stroke-dasharray:none;stroke-opacity:1"
   d="M 57.626585,222.74767 L 55.640085,220.76136" /><path
   id="path289"
   style="fill:none;stroke:#0000ff;stroke-width:0.5;stroke-linecap:butt;stroke-linejoin:miter;stroke-miterlimit:10;stroke-dasharray:none;stroke-opacity:1"
   d="M 84.443478,216.78836 L 86.430073,214.80205" /><path
   id="path291"
   style="fill:none;stroke:#0000ff;stroke-width:0.5;stroke-linecap:butt;stroke-linejoin:miter;stroke-miterlimit:10;stroke-dasharray:none;stroke-opacity:1"
   d="M 86.430073,216.78836 L 84.443478,214.80205" /><path
   id="path301"
   style="fill:none;stroke:#0000ff;stroke-width:0.5;stroke-linecap:butt;stroke-linejoin:miter;stroke-miterlimit:10;stroke-dasharray:none;stroke-opacity:1"
   d="M 82.576068,243.16846 L 84.562664,241.18187" /><path
   id="path303"
   style="fill:none;stroke:#0000ff;stroke-width:0.5;stroke-linecap:butt;stroke-linejoin:miter;stroke-miterlimit:10;stroke-dasharray:none;stroke-opacity:1"
   d="M 84.562664,243.16846 L 82.576068,241.18187" /><path
   id="path313"
   style="fill:none;stroke:#0000ff;stroke-width:0.5;stroke-linecap:butt;stroke-linejoin:round;stroke-miterlimit:10;stroke-dasharray:none;stroke-opacity:1"
   d="M 103.59288,187.78645 L 105.579,185.79995" /><path
   id="path315"
   style="fill:none;stroke:#0000ff;stroke-width:0.5;stroke-linecap:butt;stroke-linejoin:round;stroke-miterlimit:10;stroke-dasharray:none;stroke-opacity:1"
   d="M 105.579,187.78645 L 103.59288,185.79995" /><path
   id="path325"
   style="fill:none;stroke:#0000ff;stroke-width:0.5;stroke-linecap:butt;stroke-linejoin:miter;stroke-miterlimit:10;stroke-dasharray:none;stroke-opacity:1"
   d="M 84.046349,230.73305 L 86.032468,228.74693" /><path
   id="path327"
   style="fill:none;stroke:#0000ff;stroke-width:0.5;stroke-linecap:butt;stroke-linejoin:miter;stroke-miterlimit:10;stroke-dasharray:none;stroke-opacity:1"
   d="M 86.032468,230.73305 L 84.046349,228.74693" /><path
   id="path337"
   style="fill:none;stroke:#0000ff;stroke-width:0.5;stroke-linecap:butt;stroke-linejoin:miter;stroke-miterlimit:10;stroke-dasharray:none;stroke-opacity:1"
   d="M 62.15566,239.43364 L 64.14216,237.44752" /><path
   id="path339"
   style="fill:none;stroke:#0000ff;stroke-width:0.5;stroke-linecap:butt;stroke-linejoin:miter;stroke-miterlimit:10;stroke-dasharray:none;stroke-opacity:1"
   d="M 64.14216,239.43364 L 62.15566,237.44752" /><path
   id="path349"
   style="fill:none;stroke:#0000ff;stroke-width:0.5;stroke-linecap:butt;stroke-linejoin:miter;stroke-miterlimit:10;stroke-dasharray:none;stroke-opacity:1"
   d="M 80.311531,236.37485 L 82.298126,234.38825" /><path
   id="path351"
   style="fill:none;stroke:#0000ff;stroke-width:0.5;stroke-linecap:butt;stroke-linejoin:miter;stroke-miterlimit:10;stroke-dasharray:none;stroke-opacity:1"
   d="M 82.298126,236.37485 L 80.311531,234.38825" /><path
   id="path361"
   style="fill:none;stroke:#0000ff;stroke-width:0.5;stroke-linecap:butt;stroke-linejoin:miter;stroke-miterlimit:10;stroke-dasharray:none;stroke-opacity:1"
   d="M 55.679941,233.51438 L 57.66625,231.52778" /><path
   id="path363"
   style="fill:none;stroke:#0000ff;stroke-width:0.5;stroke-linecap:butt;stroke-linejoin:miter;stroke-miterlimit:10;stroke-dasharray:none;stroke-opacity:1"
   d="M 57.66625,233.51438 L 55.679941,231.52778" /><path
   id="path373"
   style="fill:none;stroke:#0000ff;stroke-width:0.5;stroke-linecap:butt;stroke-linejoin:miter;stroke-miterlimit:10;stroke-dasharray:none;stroke-opacity:1"
   d="M 73.200311,223.50264 L 75.18662,221.51614" /><path
   id="path375"
   style="fill:none;stroke:#0000ff;stroke-width:0.5;stroke-linecap:butt;stroke-linejoin:miter;stroke-miterlimit:10;stroke-dasharray:none;stroke-opacity:1"
   d="M 75.18662,223.50264 L 73.200311,221.51614" /><path
   id="path385"
   style="fill:none;stroke:#0000ff;stroke-width:0.5;stroke-linecap:butt;stroke-linejoin:miter;stroke-miterlimit:10;stroke-dasharray:none;stroke-opacity:1"
   d="M 72.723566,235.38131 L 74.709875,233.39519" /><path
   id="path387"
   style="fill:none;stroke:#0000ff;stroke-width:0.5;stroke-linecap:butt;stroke-linejoin:miter;stroke-miterlimit:10;stroke-dasharray:none;stroke-opacity:1"
   d="M 74.709875,235.38131 L 72.723566,233.39519" /><path
   style="fill:none;fill-rule:evenodd;stroke:#000000;stroke-width:0.70866144;stroke-linecap:butt;stroke-linejoin:miter;stroke-miterlimit:4;stroke-dasharray:none;stroke-opacity:1"
   d="M 40.202949,342.05153 L 188.54872,185.82101"
   id="path3914" /><path
   style="fill:none;fill-rule:evenodd;stroke:#000000;stroke-width:0.70866144;stroke-linecap:butt;stroke-linejoin:miter;stroke-miterlimit:4;stroke-dasharray:0.7086615, 1.41732301;stroke-dashoffset:0;stroke-opacity:1"
   d="M 82.587453,351.9702 L 240.68835,185.46851"
   id="path3916" /><path
   style="fill:none;fill-rule:evenodd;stroke:#000000;stroke-width:0.70866144;stroke-linecap:butt;stroke-linejoin:miter;stroke-miterlimit:4;stroke-dasharray:0.70866146, 1.41732292;stroke-dashoffset:0;stroke-opacity:1"
   d="M 39.546828,288.55509 L 138.37296,184.46374"
   id="path3918" /><text
   xml:space="preserve"
   style="font-size:6.4000001px;font-style:normal;font-variant:normal;font-weight:normal;font-stretch:normal;text-align:start;text-anchor:start;fill:#000000;fill-opacity:1;stroke:none;stroke-width:1px;stroke-linecap:butt;stroke-linejoin:miter;stroke-opacity:1;font-family:Century Schoolbook L;-inkscape-font-specification:Century Schoolbook L"
   x="-198.78519"
   y="-269.8187"
   id="text5223"
   transform="matrix(0.6943826,-0.719606,-0.719606,-0.6943826,0,0)"><tspan
     sodipodi:role="line"
     id="tspan5225"
     x="-198.78519"
     y="-269.8187"
     style="font-size:8">hyperplan séparateur optimal</tspan></text>


<path
   style="fill:none;fill-rule:evenodd;stroke:#000000;stroke-width:0.80000001px;stroke-linecap:butt;stroke-linejoin:miter;marker-start:url(#Arrow2Mstart);marker-end:url(#Arrow2Mend);stroke-opacity:1"
   d="M 150.40399,223.7693 L 124.47199,199.55157"
   id="path6782" /><path
   style="fill:none;fill-rule:evenodd;stroke:#000000;stroke-width:0.80000001px;stroke-linecap:butt;stroke-linejoin:miter;marker-start:url(#Arrow2Mstart);marker-end:url(#Arrow2Mend);stroke-opacity:1"
   d="M 178.45256,249.86489 L 152.52056,225.64716"
   id="path6784" /><text
   xml:space="preserve"
   style="font-size:6.4000001px;font-style:normal;font-variant:normal;font-weight:normal;font-stretch:normal;text-align:start;text-anchor:start;fill:#000000;fill-opacity:1;stroke:none;stroke-width:1px;stroke-linecap:butt;stroke-linejoin:miter;stroke-opacity:1;font-family:Century Schoolbook L;-inkscape-font-specification:Century Schoolbook L"
   x="270.78223"
   y="-65.080574"
   id="text6786"
   transform="matrix(0.7301834,0.6832512,0.6832512,-0.7301834,0,0)"><tspan
     sodipodi:role="line"
     id="tspan6788"
     x="270.78223"
     y="-65.080574"
     style="font-size:8px">marge</tspan></text>


<text
   xml:space="preserve"
   style="font-size:6.4000001px;font-style:normal;font-variant:normal;font-weight:normal;font-stretch:normal;fill:#000000;fill-opacity:1;stroke:none;stroke-width:1px;stroke-linecap:butt;stroke-linejoin:miter;stroke-opacity:1;font-family:Century Schoolbook L;-inkscape-font-specification:Century Schoolbook L"
   x="242.77594"
   y="-178.23073"
   id="text4309"
   transform="scale(1,-1)"><tspan
     sodipodi:role="line"
     id="tspan4311"
     x="242.77594"
     y="-178.23073"
     style="font-style:italic;-inkscape-font-specification:Century Schoolbook L Italic">x<tspan
   style="font-size:3.20000005px"
   id="tspan4313">1</tspan></tspan></text>

<text
   xml:space="preserve"
   style="font-size:6.4000001px;font-style:normal;font-variant:normal;font-weight:normal;font-stretch:normal;fill:#000000;fill-opacity:1;stroke:none;stroke-width:1px;stroke-linecap:butt;stroke-linejoin:miter;stroke-opacity:1;font-family:Century Schoolbook L;-inkscape-font-specification:Century Schoolbook L"
   x="343.4411"
   y="35.470684"
   id="text4315"
   transform="matrix(0,1,1,0,0,0)"><tspan
     sodipodi:role="line"
     id="tspan4317"
     x="343.4411"
     y="35.470684"
     style="font-style:italic;-inkscape-font-specification:Century Schoolbook L Italic">x<tspan
   style="font-size:4px"
   id="tspan4321">2</tspan></tspan></text>

</g></svg>